<svg width="91" height="199" viewBox="0 0 91 199" fill="none" xmlns="http://www.w3.org/2000/svg">
<path fill-rule="evenodd" clip-rule="evenodd" d="M61.4144 112.999H57.128V97.7334C57.128 95.4586 55.2959 93.6145 53.0358 93.6145H39.8273C37.5675 93.6145 35.7354 95.4586 35.7354 97.7334V112.578H31.9673C30.6295 112.578 29.5449 113.67 29.5449 115.016V164.537C29.5449 165.884 30.6295 166.976 31.9673 166.976H39.6281C40.9659 166.976 42.0505 165.884 42.0505 164.537C42.0505 163.191 40.9659 162.099 39.6281 162.099H34.3896V151.432C35.8252 149.225 37.6302 147.911 39.5905 147.911C44.2699 147.911 48.0631 155.399 48.0631 164.637C48.0631 173.875 44.2699 181.364 39.5905 181.364C35.3113 181.364 31.7727 175.1 31.1994 166.963C30.2185 166.651 29.5074 165.727 29.5074 164.637V136.85C25.1297 143.053 22.2779 153.187 22.2779 164.637C22.2779 183.514 30.0291 198.816 39.5907 198.816C39.8206 198.816 40.0495 198.808 40.2773 198.79H53.044C53.2718 198.808 53.5007 198.816 53.7306 198.816C63.2925 198.816 71.0434 183.514 71.0434 164.637C71.0434 153.207 68.2016 143.088 63.8368 136.882V115.437C63.8368 114.091 62.7522 112.999 61.4144 112.999ZM57.128 120.762V117.875H58.9921V132.065C57.3329 131.021 55.5651 130.458 53.7307 130.458L53.6767 130.458H39.6447L39.5907 130.458C37.7785 130.458 36.0314 131.008 34.3897 132.027V117.454H35.7354V120.762C35.7354 123.037 37.5675 124.881 39.8273 124.881H53.0358C55.2959 124.881 57.128 123.037 57.128 120.762Z" fill="#6CA1FF"/>
<path fill-rule="evenodd" clip-rule="evenodd" d="M31.2422 166.864C31.4711 166.937 31.7147 166.976 31.9673 166.976H39.6281C40.9659 166.976 42.0504 165.884 42.0504 164.537C42.0504 163.191 40.9659 162.099 39.6281 162.099H34.3896V151.382C35.8319 149.136 37.6528 147.796 39.6321 147.796C44.3116 147.796 48.1047 155.285 48.1047 164.522C48.1047 173.76 44.3116 181.249 39.6321 181.249C35.3558 181.249 31.8192 174.993 31.2422 166.864L31.2422 166.864Z" fill="#19141E"/>
<path fill-rule="evenodd" clip-rule="evenodd" d="M35.6641 109.368H57.0567V101.993H35.6641V109.368Z" fill="#19141E"/>
<path opacity="0.395764" fill-rule="evenodd" clip-rule="evenodd" d="M59.1542 132.087C59.0818 132.037 59.0083 131.988 58.9336 131.939V117.996H56.9983V113.12H61.356C62.6938 113.12 63.7783 114.212 63.7783 115.558C63.8169 124.916 63.8364 131.952 63.8368 136.666C63.7035 136.49 63.5689 136.317 63.4331 136.148C63.3304 136.006 63.23 135.866 63.1378 135.766C63.1138 135.74 63.0906 135.714 63.068 135.689C67.9364 141.739 71.1715 152.442 71.1715 164.637C71.1715 183.514 63.4205 198.816 53.8587 198.816C53.6287 198.816 53.3998 198.807 53.1721 198.79H40.4053C49.6486 198.078 57.0315 183.06 57.0315 164.637C57.0315 145.796 49.3094 130.516 39.7727 130.458L53.8047 130.458C53.8227 130.458 53.8407 130.458 53.8587 130.458C55.7057 130.458 57.4851 131.029 59.1542 132.087ZM61.9868 134.451C62.1165 134.588 62.2452 134.727 62.3729 134.87C62.2591 134.737 62.1374 134.602 61.9868 134.451ZM34.3897 162.099H39.6281C40.966 162.099 42.0505 163.191 42.0505 164.537C42.0505 165.884 40.966 166.976 39.6281 166.976H31.9673C30.6295 166.976 29.545 165.884 29.545 164.537V115.016C29.545 113.67 30.6295 112.578 31.9673 112.578H39.6281C40.966 112.578 42.0505 113.67 42.0505 115.016C42.0505 116.363 40.966 117.454 39.6281 117.454H34.3897V162.099Z" fill="black"/>
<path d="M11.6704 142.751L5.96123 136.56L14.2383 125.923L24.1755 134.544L20.5917 142.113" stroke="#19141E" stroke-width="4.06364"/>
<path d="M73.6699 142.241L68.5521 135.553L77.7693 125.719L86.8745 135.214L82.6123 142.423" stroke="#19141E" stroke-width="4.06364"/>
<path d="M77.8711 97.5985L73.7682 67.5173" stroke="#19141E" stroke-width="7.31455" stroke-linecap="round"/>
<path d="M12.3426 96.6821L16.6679 66.6323" stroke="#19141E" stroke-width="7.31455" stroke-linecap="round"/>
<path fill-rule="evenodd" clip-rule="evenodd" d="M60.6855 79.9123H49.0048C47.2642 79.9123 45.8533 78.5014 45.8533 76.7608V65.08C45.8533 63.3397 47.2642 61.9288 49.0048 61.9288H60.6855C62.4259 61.9288 63.8368 63.3397 63.8368 65.08V76.7608C63.8368 78.5014 62.4259 79.9123 60.6855 79.9123Z" fill="#19141E"/>
<path fill-rule="evenodd" clip-rule="evenodd" d="M57.7055 79.9123H49.0048C47.2642 79.9123 45.8533 78.5014 45.8533 76.7608V65.08C45.8533 63.3397 47.2642 61.9288 49.0048 61.9288H57.7055C59.4459 61.9288 60.8568 63.3397 60.8568 65.08V76.7608C60.8568 78.5014 59.4459 79.9123 57.7055 79.9123Z" fill="#405FD3"/>
<path fill-rule="evenodd" clip-rule="evenodd" d="M17.1449 76.2426C17.0628 76.2446 16.9805 76.2457 16.898 76.2457C11.4684 76.2457 7.06699 71.8439 7.06699 66.4144C7.06699 60.9848 11.4684 56.5831 16.898 56.5831C18.0577 56.5831 19.1706 56.7839 20.2036 57.1527C25.048 48.4359 34.3498 42.5375 45.0293 42.5375C55.2167 42.5375 64.1503 47.9045 69.1572 55.9651C70.1502 55.6277 71.2146 55.4447 72.3217 55.4447C77.7512 55.4447 82.153 59.8464 82.153 65.276C82.153 70.44 78.1712 74.674 73.1105 75.0758C71.0999 88.7814 59.2937 99.3035 45.0293 99.3035C31.173 99.3035 19.6359 89.3741 17.1449 76.2426ZM0.0204798 103.39C-0.277791 99.3945 2.71955 95.9141 6.71491 95.6159L16.7524 94.8671C20.7477 94.5688 24.2281 97.5662 24.5261 101.561L26.2334 124.441C26.5314 128.437 23.5343 131.917 19.5392 132.215L9.50149 132.964C5.50612 133.262 2.02575 130.265 1.72775 126.27L0.0204798 103.39ZM72.7755 94.3754C68.7693 94.354 65.504 97.5843 65.4829 101.591L65.3607 124.534C65.3393 128.54 68.5699 131.805 72.5761 131.827L82.6414 131.88C86.6476 131.902 89.9129 128.671 89.934 124.665L90.0562 101.722C90.0776 97.7154 86.847 94.4504 82.8408 94.4288L72.7755 94.3754Z" fill="#6CA1FF"/>
<path fill-rule="evenodd" clip-rule="evenodd" d="M34.1914 44.7048H55.8677V37.5363H34.1914V44.7048Z" fill="#19141E"/>
<path fill-rule="evenodd" clip-rule="evenodd" d="M57.7056 79.9123C59.4459 79.9123 60.8568 78.5014 60.8568 76.7608V65.08C60.8568 63.3397 59.4459 61.9288 57.7056 61.9288H60.6856C62.4259 61.9288 63.8368 63.3397 63.8368 65.08V76.7608C63.8368 78.5014 62.4259 79.9123 60.6856 79.9123H57.7056Z" fill="#19141E"/>
<path opacity="0.401762" d="M5.54991 102.84L4.33459 102.936V102.936L5.54991 102.84ZM4.23889 101.721L4.33459 102.936H4.33459L4.23889 101.721ZM7.352 125.727L6.13667 125.823L7.352 125.727ZM6.23237 127.038L6.32806 128.253L6.23237 127.038ZM4.92134 125.918L6.13667 125.823L4.92134 125.918ZM3.11926 103.032L4.33459 102.936V102.936L3.11926 103.032ZM10.0167 102.459L8.80132 102.554V102.554L10.0167 102.459ZM8.70563 101.339L8.80132 102.554L8.70563 101.339ZM11.8187 125.345L10.6034 125.441L11.8187 125.345ZM10.6991 126.656L10.7948 127.872L10.6991 126.656ZM9.38808 125.537L10.6034 125.441L9.38808 125.537ZM7.58599 102.65L8.80132 102.554V102.554L7.58599 102.65ZM6.76524 102.745C6.65954 101.402 5.48561 100.4 4.14319 100.505L4.33459 102.936L4.33459 102.936L6.76524 102.745ZM8.56733 125.631L6.76524 102.745L4.33459 102.936L6.13667 125.823L8.56733 125.631ZM6.32806 128.253C7.67048 128.147 8.67303 126.974 8.56733 125.631L6.13667 125.823H6.13667L6.32806 128.253ZM3.70601 126.014C3.81172 127.356 4.98565 128.359 6.32806 128.253L6.13667 125.823L6.13667 125.823L3.70601 126.014ZM1.90393 103.127L3.70601 126.014L6.13667 125.823L4.33459 102.936L1.90393 103.127ZM4.14319 100.505C2.80078 100.611 1.79822 101.785 1.90393 103.127L4.33459 102.936L4.33459 102.936L4.14319 100.505ZM11.232 102.363C11.1263 101.021 9.95235 100.018 8.60993 100.124L8.80132 102.554V102.554L11.232 102.363ZM13.0341 125.249L11.232 102.363L8.80132 102.554L10.6034 125.441L13.0341 125.249ZM10.7948 127.872C12.1372 127.766 13.1398 126.592 13.0341 125.249L10.6034 125.441H10.6034L10.7948 127.872ZM8.17275 125.632C8.27845 126.975 9.45239 127.977 10.7948 127.872L10.6034 125.441L10.6034 125.441L8.17275 125.632ZM6.37066 102.746L8.17275 125.632L10.6034 125.441L8.80132 102.554L6.37066 102.746ZM8.60993 100.124C7.26751 100.23 6.26496 101.403 6.37066 102.746L8.80132 102.554V102.554L8.60993 100.124Z" fill="black"/>
<path opacity="0.397763" fill-rule="evenodd" clip-rule="evenodd" d="M57.7172 79.9016H49.0164C47.2758 79.9016 45.8649 78.4907 45.8649 76.7501V65.0693C45.8649 63.329 47.2758 61.9181 49.0164 61.9181H57.7172C59.4575 61.9181 60.8684 63.329 60.8684 65.0693V76.7501C60.8684 78.4907 59.4575 79.9016 57.7172 79.9016ZM50.5048 70.0061C51.7656 70.0061 52.788 68.984 52.788 67.7229C52.788 66.4621 51.7656 65.4399 50.5048 65.4399C49.2439 65.4399 48.2218 66.4621 48.2218 67.7229C48.2218 68.984 49.2439 70.0061 50.5048 70.0061ZM56.9929 70.0061C58.2537 70.0061 59.2761 68.984 59.2761 67.7229C59.2761 66.4621 58.2537 65.4399 56.9929 65.4399C55.7321 65.4399 54.7096 66.4621 54.7096 67.7229C54.7096 68.984 55.7321 70.0061 56.9929 70.0061ZM50.5048 76.6049C51.7656 76.6049 52.788 75.5827 52.788 74.3217C52.788 73.0608 51.7656 72.0387 50.5048 72.0387C49.2439 72.0387 48.2218 73.0608 48.2218 74.3217C48.2218 75.5827 49.2439 76.6049 50.5048 76.6049Z" fill="black"/>
<path opacity="0.404204" fill-rule="evenodd" clip-rule="evenodd" d="M6.77277 66.3313C6.77277 71.7608 11.1742 76.1626 16.6038 76.1626C22.0333 76.1626 26.4351 71.7608 26.4351 66.3313C26.4351 60.9017 22.0333 56.5 16.6038 56.5C11.1742 56.5 6.77277 60.9017 6.77277 66.3313Z" fill="black"/>
<path opacity="0.398763" fill-rule="evenodd" clip-rule="evenodd" d="M65.6823 101.643L65.5601 124.586C65.5387 128.592 68.7693 131.857 72.7755 131.879L82.8409 131.932C86.8471 131.954 90.1123 128.723 90.1335 124.716L90.2556 101.773C90.277 97.7673 87.0464 94.5023 83.0402 94.4806L72.9749 94.4272C68.9687 94.4058 65.7034 97.6361 65.6823 101.643Z" fill="black"/>
<path opacity="0.397856" fill-rule="evenodd" clip-rule="evenodd" d="M69.0818 56.0722C70.0749 55.7348 71.1392 55.5518 72.2463 55.5518C77.6759 55.5518 82.0776 59.9535 82.0776 65.383C82.0776 70.5471 78.0959 74.7811 73.0351 75.1829C73.2341 73.8266 73.3371 72.4392 73.3371 71.0277C73.3371 65.5394 71.7793 60.4149 69.0818 56.0722H69.0818Z" fill="black"/>
<path opacity="0.598121" fill-rule="evenodd" clip-rule="evenodd" d="M50.5048 76.6028C51.7656 76.6028 52.788 75.5807 52.788 74.3196C52.788 73.0588 51.7656 72.0366 50.5048 72.0366C49.244 72.0366 48.2218 73.0588 48.2218 74.3196C48.2218 75.5807 49.244 76.6028 50.5048 76.6028Z" fill="black"/>
<path d="M39.479 3.51636C39.479 3.51636 44.2096 6.64509 44.7301 12.0581" stroke="#19141E" stroke-width="1.35455" stroke-linecap="round"/>
<path fill-rule="evenodd" clip-rule="evenodd" d="M39.0315 5.86083C40.6082 5.86083 41.8864 4.58241 41.8864 3.00572C41.8864 1.42903 40.6082 0.150879 39.0315 0.150879C37.4548 0.150879 36.1764 1.42903 36.1764 3.00572C36.1764 4.58241 37.4548 5.86083 39.0315 5.86083ZM25.4317 26.2799H39.7567V37.6246H47.9813V26.2799H61.5536C64.6639 26.2799 67.2089 23.735 67.2089 20.6247V16.8122C67.2089 13.7019 64.6639 11.157 61.5536 11.157H25.4317C22.3214 11.157 19.7765 13.7019 19.7765 16.8122V20.6247C19.7765 23.735 22.3214 26.2799 25.4317 26.2799Z" fill="#6CA1FF"/>
<path opacity="0.399042" fill-rule="evenodd" clip-rule="evenodd" d="M39.7567 37.6246H47.9812V26.2465H39.7567V37.6246Z" fill="black"/>
<path opacity="0.400367" fill-rule="evenodd" clip-rule="evenodd" d="M39.7568 33.9445L47.9814 31.2354V26.2008H39.7568V33.9445Z" fill="black"/>
<path fill-rule="evenodd" clip-rule="evenodd" d="M25.4316 26.2799C22.3213 26.2799 19.7764 23.735 19.7764 20.6247V16.8122C19.7764 13.7019 22.3213 11.157 25.4316 11.157C28.5419 11.157 31.0868 13.7019 31.0868 16.8122V20.6247C31.0868 23.735 28.5419 26.2799 25.4316 26.2799Z" fill="#19141E"/>
<path fill-rule="evenodd" clip-rule="evenodd" d="M34.3012 18.7186C34.3012 21.1132 36.2425 23.0545 38.6371 23.0545C41.0319 23.0545 42.9733 21.1132 42.9733 18.7186C42.9733 16.3238 41.0319 14.3824 38.6371 14.3824C36.2425 14.3824 34.3012 16.3238 34.3012 18.7186Z" fill="white"/>
<path fill-rule="evenodd" clip-rule="evenodd" d="M37.2069 18.1093C37.2069 19.2095 38.0987 20.1013 39.1989 20.1013C40.2991 20.1013 41.1909 19.2095 41.1909 18.1093C41.1909 17.0091 40.2991 16.1173 39.1989 16.1173C38.0987 16.1173 37.2069 17.0091 37.2069 18.1093Z" fill="#19141E"/>
<path fill-rule="evenodd" clip-rule="evenodd" d="M55.4456 18.7186C55.4456 21.1132 57.387 23.0545 59.7818 23.0545C62.1766 23.0545 64.118 21.1132 64.118 18.7186C64.118 16.3238 62.1766 14.3824 59.7818 14.3824C57.387 14.3824 55.4456 16.3238 55.4456 18.7186Z" fill="white"/>
<path fill-rule="evenodd" clip-rule="evenodd" d="M58.3513 18.1093C58.3513 19.2095 59.2432 20.1013 60.3433 20.1013C61.4435 20.1013 62.3353 19.2095 62.3353 18.1093C62.3353 17.0091 61.4435 16.1173 60.3433 16.1173C59.2432 16.1173 58.3513 17.0091 58.3513 18.1093Z" fill="#19141E"/>
<path fill-rule="evenodd" clip-rule="evenodd" d="M48.2185 15.7465L52.0968 18.6893L48.2185 21.6905" fill="#19141E"/>
</svg>
