<svg width="96" height="96" viewBox="0 0 96 96" fill="none" xmlns="http://www.w3.org/2000/svg">
<path d="M18.4181 10.199C11.3401 15.7381 5.95946 23.153 2.88863 31.5999C-0.182191 40.0467 -0.819794 49.186 1.04841 57.9774C2.91662 66.7688 7.21557 74.8591 13.4559 81.3272C19.6962 87.7954 27.6272 92.3816 36.346 94.5638C45.0647 96.7459 54.221 96.4363 62.7725 93.6703C71.324 90.9042 78.9271 85.7928 84.7163 78.9179C90.5054 72.043 94.2481 63.6808 95.5183 54.7833C96.7884 45.8858 95.535 36.8104 91.9006 28.5903L48 48L18.4181 10.199Z" fill="#FDE8D0"/>
<path d="M68 31H18C17.4477 31 17 31.4477 17 32V72C17 72.5523 17.4477 73 18 73H68C68.5523 73 69 72.5523 69 72V32C69 31.4477 68.5523 31 68 31Z" fill="#EFD8BE"/>
<path d="M21 68H65C66.0609 68 67.0783 68.4214 67.8284 69.1716C68.5786 69.9217 69 70.9391 69 72V73H17V72C17 70.9391 17.4214 69.9217 18.1716 69.1716C18.9217 68.4214 19.9391 68 21 68Z" fill="#CDA1A7"/>
<path d="M76.83 69.4C76.779 69.4599 76.7425 69.5308 76.7234 69.6071C76.7043 69.6835 76.7032 69.7632 76.72 69.84L77.3 72.56C77.3256 72.6817 77.3049 72.8085 77.2421 72.9157C77.1792 73.023 77.0786 73.1029 76.96 73.14L74.32 74C74.2457 74.0252 74.1781 74.0671 74.1226 74.1226C74.0671 74.1781 74.0251 74.2457 74 74.32L73.14 77C73.1029 77.1187 73.0229 77.2192 72.9157 77.2821C72.8085 77.3449 72.6817 77.3656 72.56 77.34L69.84 76.76C69.7632 76.7432 69.6834 76.7444 69.6071 76.7634C69.5308 76.7825 69.4599 76.819 69.4 76.87L67.34 78.7C67.2481 78.783 67.1288 78.8289 67.005 78.8289C66.8813 78.8289 66.7619 78.783 66.67 78.7L65.43 77.57L64.61 76.83C64.5501 76.779 64.4793 76.7425 64.4029 76.7234C64.3266 76.7044 64.2469 76.7032 64.17 76.72L61.77 77.23L61.45 77.3C61.3284 77.3256 61.2016 77.3049 61.0943 77.2421C60.9871 77.1792 60.9071 77.0787 60.87 76.96L60 74.32C59.9749 74.2457 59.933 74.1781 59.8775 74.1226C59.822 74.0671 59.7544 74.0252 59.68 74L59.16 73.83L57 73.14C56.8814 73.1029 56.7808 73.023 56.718 72.9157C56.6551 72.8085 56.6345 72.6817 56.66 72.56L56.73 72.22L57.24 69.84C57.2569 69.7632 57.2557 69.6835 57.2366 69.6071C57.2175 69.5308 57.1811 69.4599 57.13 69.4L56 68L55.36 67.29C55.2771 67.1982 55.2312 67.0788 55.2312 66.955C55.2312 66.8313 55.2771 66.7119 55.36 66.62L57.23 64.56C57.2811 64.5002 57.3175 64.4293 57.3366 64.3529C57.3557 64.2766 57.3569 64.1969 57.34 64.12L56.76 61.4C56.7345 61.2784 56.7551 61.1516 56.818 61.0444C56.8808 60.9371 56.9814 60.8572 57.1 60.82L59.69 60C59.7644 59.9749 59.832 59.933 59.8875 59.8775C59.943 59.822 59.9849 59.7544 60.01 59.68L60.87 57C60.9071 56.8814 60.9871 56.7809 61.0943 56.718C61.2016 56.6551 61.3284 56.6345 61.45 56.66L64.17 57.24C64.2469 57.2569 64.3266 57.2557 64.4029 57.2366C64.4793 57.2176 64.5501 57.1811 64.61 57.13L66.67 55.26C66.7619 55.1771 66.8813 55.1312 67.005 55.1312C67.1288 55.1312 67.2481 55.1771 67.34 55.26L68 56L69.35 57.23C69.4099 57.2811 69.4808 57.3176 69.5571 57.3366C69.6334 57.3557 69.7132 57.3569 69.79 57.34L72.17 56.83L72.51 56.76C72.6317 56.7345 72.7585 56.7552 72.8657 56.818C72.9729 56.8809 73.0529 56.9814 73.09 57.1L73.78 59.22L73.95 59.74C73.9751 59.8144 74.0171 59.882 74.0726 59.9375C74.1281 59.993 74.1957 60.0349 74.27 60.06L76.91 60.92C77.0286 60.9572 77.1292 61.0371 77.1921 61.1444C77.2549 61.2516 77.2756 61.3784 77.25 61.5L77.18 61.82L76.67 64.22C76.6532 64.2969 76.6543 64.3766 76.6734 64.4529C76.6925 64.5293 76.729 64.6002 76.78 64.66L77.52 65.48L78.65 66.72C78.7329 66.8119 78.7788 66.9313 78.7788 67.055C78.7788 67.1788 78.7329 67.2982 78.65 67.39L76.83 69.4Z" fill="#72CAAF"/>
<path d="M69 31H18L26 25H62L69 31Z" fill="#FAEFDE"/>
<path d="M26 66.06C25.7348 66.06 25.4804 66.1654 25.2929 66.3529C25.1054 66.5404 25 66.7948 25 67.06V69.06C25 69.3252 25.1054 69.5796 25.2929 69.7671C25.4804 69.9546 25.7348 70.06 26 70.06C26.2652 70.06 26.5196 69.9546 26.7071 69.7671C26.8946 69.5796 27 69.3252 27 69.06V67.06C27 66.7948 26.8946 66.5404 26.7071 66.3529C26.5196 66.1654 26.2652 66.06 26 66.06ZM21 66.06C20.7348 66.06 20.4804 66.1654 20.2929 66.3529C20.1054 66.5404 20 66.7948 20 67.06V69.06C20 69.3252 20.1054 69.5796 20.2929 69.7671C20.4804 69.9546 20.7348 70.06 21 70.06C21.2652 70.06 21.5196 69.9546 21.7071 69.7671C21.8946 69.5796 22 69.3252 22 69.06V67.06C22 66.7948 21.8946 66.5404 21.7071 66.3529C21.5196 66.1654 21.2652 66.06 21 66.06ZM31 66.06C30.7348 66.06 30.4804 66.1654 30.2929 66.3529C30.1054 66.5404 30 66.7948 30 67.06V69.06C30 69.3252 30.1054 69.5796 30.2929 69.7671C30.4804 69.9546 30.7348 70.06 31 70.06C31.2652 70.06 31.5196 69.9546 31.7071 69.7671C31.8946 69.5796 32 69.3252 32 69.06V67.06C32 66.7948 31.8946 66.5404 31.7071 66.3529C31.5196 66.1654 31.2652 66.06 31 66.06ZM36 66.06C35.7348 66.06 35.4804 66.1654 35.2929 66.3529C35.1054 66.5404 35 66.7948 35 67.06V69.06C35 69.3252 35.1054 69.5796 35.2929 69.7671C35.4804 69.9546 35.7348 70.06 36 70.06C36.2652 70.06 36.5196 69.9546 36.7071 69.7671C36.8946 69.5796 37 69.3252 37 69.06V67.06C37 66.7948 36.8946 66.5404 36.7071 66.3529C36.5196 66.1654 36.2652 66.06 36 66.06ZM41 66.06C40.7348 66.06 40.4804 66.1654 40.2929 66.3529C40.1054 66.5404 40 66.7948 40 67.06V69.06C40 69.3252 40.1054 69.5796 40.2929 69.7671C40.4804 69.9546 40.7348 70.06 41 70.06C41.2652 70.06 41.5196 69.9546 41.7071 69.7671C41.8946 69.5796 42 69.3252 42 69.06V67.06C42 66.7948 41.8946 66.5404 41.7071 66.3529C41.5196 66.1654 41.2652 66.06 41 66.06ZM46 66.06C45.7348 66.06 45.4804 66.1654 45.2929 66.3529C45.1054 66.5404 45 66.7948 45 67.06V69.06C45 69.3252 45.1054 69.5796 45.2929 69.7671C45.4804 69.9546 45.7348 70.06 46 70.06C46.2652 70.06 46.5196 69.9546 46.7071 69.7671C46.8946 69.5796 47 69.3252 47 69.06V67.06C47 66.7948 46.8946 66.5404 46.7071 66.3529C46.5196 66.1654 46.2652 66.06 46 66.06ZM51 66.06C50.7348 66.06 50.4804 66.1654 50.2929 66.3529C50.1054 66.5404 50 66.7948 50 67.06V69.06C50 69.3252 50.1054 69.5796 50.2929 69.7671C50.4804 69.9546 50.7348 70.06 51 70.06C51.2652 70.06 51.5196 69.9546 51.7071 69.7671C51.8946 69.5796 52 69.3252 52 69.06V67.06C52 66.7948 51.8946 66.5404 51.7071 66.3529C51.5196 66.1654 51.2652 66.06 51 66.06ZM59 32H63C63.2652 32 63.5196 31.8946 63.7071 31.7071C63.8946 31.5196 64 31.2652 64 31C64 30.7348 63.8946 30.4804 63.7071 30.2929C63.5196 30.1054 63.2652 30 63 30H59C58.7348 30 58.4804 30.1054 58.2929 30.2929C58.1054 30.4804 58 30.7348 58 31C58 31.2652 58.1054 31.5196 58.2929 31.7071C58.4804 31.8946 58.7348 32 59 32ZM53 56H33C32.7348 56 32.4804 56.1054 32.2929 56.2929C32.1054 56.4804 32 56.7348 32 57C32 57.2652 32.1054 57.5196 32.2929 57.7071C32.4804 57.8946 32.7348 58 33 58H53C53.2652 58 53.5196 57.8946 53.7071 57.7071C53.8946 57.5196 54 57.2652 54 57C54 56.7348 53.8946 56.4804 53.7071 56.2929C53.5196 56.1054 53.2652 56 53 56ZM39 38H47C47.2652 38 47.5196 37.8946 47.7071 37.7071C47.8946 37.5196 48 37.2652 48 37C48 36.7348 47.8946 36.4804 47.7071 36.2929C47.5196 36.1054 47.2652 36 47 36H39C38.7348 36 38.4804 36.1054 38.2929 36.2929C38.1054 36.4804 38 36.7348 38 37C38 37.2652 38.1054 37.5196 38.2929 37.7071C38.4804 37.8946 38.7348 38 39 38ZM34.71 46.71L36 45.41V53C36 53.2652 36.1054 53.5196 36.2929 53.7071C36.4804 53.8946 36.7348 54 37 54C37.2652 54 37.5196 53.8946 37.7071 53.7071C37.8946 53.5196 38 53.2652 38 53V45.41L39.29 46.7C39.4813 46.8638 39.7274 46.9494 39.9791 46.9397C40.2307 46.93 40.4695 46.8257 40.6476 46.6476C40.8257 46.4695 40.93 46.2307 40.9397 45.9791C40.9494 45.7274 40.8638 45.4813 40.7 45.29L37.7 42.29C37.5126 42.1038 37.2592 41.9992 36.995 41.9992C36.7308 41.9992 36.4774 42.1038 36.29 42.29L33.29 45.29C33.1262 45.4813 33.0406 45.7274 33.0503 45.9791C33.06 46.2307 33.1643 46.4695 33.3424 46.6476C33.5205 46.8257 33.7593 46.93 34.0109 46.9397C34.2626 46.9494 34.5087 46.8638 34.7 46.7L34.71 46.71ZM45.29 46.71C45.4774 46.8962 45.7308 47.0008 45.995 47.0008C46.2592 47.0008 46.5126 46.8962 46.7 46.71L48 45.41V53C48 53.2652 48.1054 53.5196 48.2929 53.7071C48.4804 53.8946 48.7348 54 49 54C49.2652 54 49.5196 53.8946 49.7071 53.7071C49.8946 53.5196 50 53.2652 50 53V45.41L51.29 46.7C51.4813 46.8638 51.7274 46.9494 51.9791 46.9397C52.2307 46.93 52.4695 46.8257 52.6476 46.6476C52.8257 46.4695 52.93 46.2307 52.9397 45.9791C52.9494 45.7274 52.8638 45.4813 52.7 45.29L49.7 42.29C49.5126 42.1038 49.2592 41.9992 48.995 41.9992C48.7308 41.9992 48.4774 42.1038 48.29 42.29L45.29 45.29C45.1963 45.383 45.1219 45.4936 45.0711 45.6154C45.0203 45.7373 44.9942 45.868 44.9942 46C44.9942 46.132 45.0203 46.2627 45.0711 46.3846C45.1219 46.5064 45.1963 46.617 45.29 46.71Z" fill="#8D6C9F"/>
<path d="M79.44 66L77.75 64.13L78.28 61.66C78.3577 61.2977 78.2985 60.9194 78.1138 60.5981C77.9292 60.2769 77.6322 60.0353 77.28 59.92L74.88 59.14L74.1 56.74C73.9867 56.3865 73.7454 56.0881 73.4236 55.9031C73.1018 55.7182 72.7225 55.66 72.36 55.74L70.01 56.24V33C70.01 32.2238 69.8293 31.4582 69.4821 30.7639C69.135 30.0697 68.631 29.4657 68.01 29L62.67 25C61.8022 24.3554 60.751 24.005 59.67 24H26.33C25.249 24.005 24.1978 24.3554 23.33 25L18 29C17.379 29.4657 16.875 30.0697 16.5279 30.7639C16.1807 31.4582 16 32.2238 16 33V71C16 71.7957 16.3161 72.5587 16.8787 73.1213C17.4413 73.6839 18.2044 74 19 74H56.51L56.74 74.09L59.14 74.87L59.92 77.27C60.0353 77.6222 60.2769 77.9192 60.5981 78.1038C60.9194 78.2885 61.2977 78.3477 61.66 78.27L64.13 77.74L66 79.44C66.2743 79.6881 66.6302 79.8269 67 79.83C67.3704 79.8297 67.7272 79.6906 68 79.44L69.87 77.75L72.34 78.28C72.7023 78.3577 73.0806 78.2985 73.4019 78.1138C73.7231 77.9292 73.9647 77.6322 74.08 77.28L74.86 74.88L77.26 74.1C77.6135 73.9867 77.9119 73.7454 78.0969 73.4236C78.2818 73.1018 78.34 72.7225 78.26 72.36L77.73 69.89L79.44 68C79.6881 67.726 79.8254 67.3696 79.8254 67C79.8254 66.6304 79.6881 66.274 79.44 66ZM24.53 26.6C25.0493 26.2105 25.6809 26 26.33 26H42V30H20L24.53 26.6ZM18 71V32H55C55.2652 32 55.5196 31.8946 55.7071 31.7071C55.8946 31.5196 56 31.2652 56 31C56 30.7348 55.8946 30.4804 55.7071 30.2929C55.5196 30.1054 55.2652 30 55 30H44V26H59.67C60.3191 26 60.9507 26.2105 61.47 26.6L66.8 30.6C67.1726 30.8794 67.475 31.2418 67.6833 31.6584C67.8916 32.0749 68 32.5343 68 33V54.56C67.726 54.3119 67.3696 54.1746 67 54.1746C66.6304 54.1746 66.274 54.3119 66 54.56L64.13 56.25L61.66 55.72C61.2975 55.64 60.9182 55.6982 60.5964 55.8831C60.2746 56.0681 60.0333 56.3665 59.92 56.72L59.14 59.12L56.74 59.9C56.3878 60.0153 56.0908 60.2569 55.9062 60.5781C55.7215 60.8994 55.6623 61.2777 55.74 61.64L56.27 64.11L54.57 66C54.3219 66.274 54.1846 66.6304 54.1846 67C54.1846 67.3696 54.3219 67.726 54.57 68L56.26 69.87L55.81 72H19C18.7348 72 18.4804 71.8946 18.2929 71.7071C18.1054 71.5196 18 71.2652 18 71ZM76.09 68.73C75.9395 68.9015 75.8298 69.1049 75.7692 69.3248C75.7086 69.5448 75.6986 69.7756 75.74 70L76.23 72.28L74 73C73.7644 73.0724 73.55 73.2014 73.3757 73.3757C73.2014 73.55 73.0724 73.7644 73 74L72.29 76.22L70 75.74C69.768 75.6905 69.5275 75.6964 69.2982 75.7573C69.0688 75.8181 68.8571 75.9321 68.68 76.09L67 77.65L65.28 76.09C65.0042 75.8455 64.6485 75.7104 64.28 75.71C64.1769 75.7001 64.0731 75.7001 63.97 75.71L61.69 76.2L61 74C60.9232 73.7667 60.7927 73.5547 60.619 73.381C60.4453 73.2073 60.2333 73.0768 60 73L57.78 72.29L57.85 71.96L58.27 70.02C58.3195 69.7864 58.3136 69.5444 58.2529 69.3135C58.1921 69.0825 58.0781 68.869 57.92 68.69L56.36 67L57.92 65.28C58.0713 65.107 58.1814 64.9019 58.2421 64.6802C58.3027 64.4585 58.3122 64.2259 58.27 64L57.78 61.72L60 61C60.2369 60.93 60.4525 60.8018 60.6272 60.6272C60.8018 60.4525 60.93 60.2369 61 60L61.72 57.78L63.99 58.27C64.2236 58.3195 64.4656 58.3136 64.6965 58.2529C64.9275 58.1921 65.141 58.0781 65.32 57.92L67 56.36L68 57.26L68.73 57.92C68.9003 58.0724 69.1036 58.1834 69.3239 58.2441C69.5443 58.3048 69.7757 58.3137 70 58.27L72.28 57.78L73 60C73.07 60.2369 73.1982 60.4525 73.3728 60.6272C73.5475 60.8018 73.7631 60.93 74 61L76.22 61.72L75.74 64C75.6905 64.232 75.6964 64.4725 75.7573 64.7018C75.8181 64.9312 75.9321 65.1429 76.09 65.32L77.65 67L76.09 68.73Z" fill="#8D6C9F"/>
</svg>
