<svg width="161" height="288" viewBox="0 0 161 288" fill="none" xmlns="http://www.w3.org/2000/svg">
<path d="M91.4368 196.548L86.937 238.257" stroke="#19141E" stroke-width="7.95198" stroke-linecap="round"/>
<path d="M56.242 196.548L51.7422 238.257" stroke="#19141E" stroke-width="7.95198" stroke-linecap="round"/>
<path d="M85.043 121.778L91.2698 190.875" stroke="#19141E" stroke-width="7.95198" stroke-linecap="round"/>
<path d="M52.909 121.254C52.9199 119.058 54.6973 117.287 56.8789 117.298C59.0605 117.309 60.8202 119.098 60.8092 121.294L60.4657 190.216C60.4548 192.412 58.6774 194.183 56.4958 194.172C54.3142 194.161 52.5545 192.372 52.5655 190.176L52.909 121.254Z" fill="#19141E"/>
<path fill-rule="evenodd" clip-rule="evenodd" d="M48.4539 118.947C48.4657 122.53 50.2078 125.72 52.8766 127.713L52.9088 121.254C52.9198 119.059 54.6972 117.287 56.8788 117.298C59.0604 117.309 60.82 119.098 60.8091 121.294L60.7664 129.862L83.9883 129.784C89.9753 129.764 94.8578 124.817 94.8375 118.79C94.8176 112.764 89.9025 107.85 83.9151 107.87L59.3031 107.954C53.3157 107.974 48.4336 112.921 48.4539 118.947ZM71.653 266.813L70.7968 274.728C68.9907 270.959 65.5534 268.132 61.4068 267.173L66.171 223.012C66.4183 220.72 64.773 218.663 62.4956 218.414L44.895 216.488C42.6142 216.239 40.5705 217.895 40.3231 220.187L35.2944 266.813L33.783 280.785L33.3296 284.996H108.527V280.785C108.524 274.15 103.928 268.597 97.7654 267.173L102.53 223.012C102.777 220.72 101.132 218.663 98.8543 218.414L81.2537 216.488C78.9729 216.239 76.9291 217.895 76.6818 220.187L71.653 266.813ZM65.3753 193.029C65.3753 198.52 60.9532 202.97 55.4988 202.97C50.0442 202.97 45.622 198.52 45.622 193.029C45.622 187.539 50.0442 183.088 55.4988 183.088C60.9532 183.088 65.3753 187.539 65.3753 193.029ZM91.8167 202.97C97.2711 202.97 101.693 198.52 101.693 193.029C101.693 187.539 97.2711 183.088 91.8167 183.088C86.3621 183.088 81.9399 187.539 81.9399 193.029C81.9399 198.52 86.3621 202.97 91.8167 202.97Z" fill="#6CA1FF"/>
<path opacity="0.397182" fill-rule="evenodd" clip-rule="evenodd" d="M72.1419 280.754C72.1408 278.584 71.6483 276.529 70.7704 274.697L71.6265 266.782L76.6553 220.156C76.9026 217.864 78.9464 216.208 81.2272 216.457L98.8278 218.383C101.105 218.632 102.75 220.689 102.503 222.981L97.7389 267.142C103.901 268.567 108.497 274.119 108.501 280.754V284.965H33.3296L33.783 280.754H72.1419Z" fill="black"/>
<path opacity="0.401204" fill-rule="evenodd" clip-rule="evenodd" d="M101.687 193.009C101.687 198.5 97.2652 202.95 91.8109 202.95C86.3562 202.95 81.9341 198.5 81.9341 193.009C81.9341 187.519 86.3562 183.068 91.8109 183.068C97.2652 183.068 101.687 187.519 101.687 193.009Z" fill="black"/>
<path opacity="0.596656" fill-rule="evenodd" clip-rule="evenodd" d="M48.9748 225.873C48.9748 227.459 47.6977 228.744 46.1221 228.744C44.5464 228.744 43.269 227.459 43.269 225.873C43.269 224.287 44.5464 223.001 46.1221 223.001C47.6977 223.001 48.9748 224.287 48.9748 225.873ZM47.9665 235.237C47.9665 236.823 46.6894 238.109 45.1138 238.109C43.5382 238.109 42.2607 236.823 42.2607 235.237C42.2607 233.651 43.5382 232.366 45.1138 232.366C46.6894 232.366 47.9665 233.651 47.9665 235.237Z" fill="black"/>
<path opacity="0.396019" fill-rule="evenodd" clip-rule="evenodd" d="M45.9888 270.687C45.9888 272.774 44.3084 274.465 42.2358 274.465C40.1628 274.465 38.4824 272.774 38.4824 270.687C38.4824 268.601 40.1628 266.91 42.2358 266.91C44.3084 266.91 45.9888 268.601 45.9888 270.687Z" fill="black"/>
<path d="M94.6758 100.481L110.176 133.952" stroke="#19141E" stroke-width="5.53181" stroke-linecap="round"/>
<path fill-rule="evenodd" clip-rule="evenodd" d="M64.376 107.87H76.3973V98.1896H64.376V107.87Z" fill="#19141E"/>
<path d="M36.4116 137.417L39.7366 100.926" stroke="#19141E" stroke-width="5.53181" stroke-linecap="round"/>
<path fill-rule="evenodd" clip-rule="evenodd" d="M49.3359 98.6169L49.0975 99.0882C46.9712 103.291 41.7934 104.991 37.5906 102.865L36.8822 102.507C32.6794 100.381 30.9801 95.2025 33.1061 90.9994L45.1343 67.2198C46.7523 64.0205 50.139 62.2718 53.518 62.5567C55.1148 61.9023 56.8598 61.5411 58.685 61.5411H82.089C85.3778 61.5411 88.4062 62.7137 90.7766 64.6615C93.9021 65.3542 96.5247 67.7783 97.2918 71.0904L103.307 97.0515C104.37 101.64 101.485 106.264 96.897 107.327L96.1235 107.506C91.7534 108.519 87.3509 105.95 86.0233 101.739C84.7758 102.115 83.4548 102.317 82.089 102.317H58.685C55.0817 102.317 51.7911 100.909 49.3359 98.6169ZM113.377 148.252L109.508 151.706C109.331 151.508 109.052 151.173 108.704 150.721C108.134 149.981 107.566 149.161 107.034 148.278C105.595 145.893 104.66 143.48 104.497 141.083C104.277 137.861 105.517 134.995 108.347 132.93C111.18 130.863 114.132 130.686 116.659 132.313C118.461 133.474 119.849 135.398 120.991 137.876C121.568 139.127 122.046 140.448 122.435 141.767C122.57 142.227 122.686 142.656 122.782 143.043C122.841 143.284 122.882 143.463 122.905 143.571L117.832 144.647C117.821 144.594 117.793 144.472 117.748 144.29C117.67 143.974 117.574 143.618 117.46 143.234C117.138 142.14 116.743 141.048 116.282 140.047C115.515 138.384 114.654 137.19 113.851 136.673C113.183 136.243 112.554 136.281 111.404 137.12C110.059 138.101 109.569 139.234 109.671 140.73C109.769 142.167 110.424 143.859 111.475 145.6C111.899 146.304 112.357 146.965 112.814 147.558C112.972 147.763 113.117 147.944 113.245 148.097C113.316 148.182 113.361 148.235 113.377 148.252ZM25.9513 150.945L31.1284 150.64C31.1276 150.626 31.1255 150.58 31.123 150.504C31.1054 149.951 31.1159 149.241 31.1764 148.439C31.2635 147.284 31.4408 146.157 31.7232 145.126C32.5614 142.067 34.0048 140.589 36.4927 140.687C38.6363 140.772 39.1697 141.764 38.7815 144.553C38.6301 145.641 38.3133 146.846 37.8795 148.086C37.6514 148.737 37.4064 149.355 37.1624 149.915C37.0781 150.108 37.0005 150.279 36.932 150.426C36.8935 150.508 36.8685 150.56 36.8591 150.578L41.5042 152.885C41.5942 152.703 41.7376 152.397 41.9167 151.986C42.2096 151.314 42.5014 150.579 42.7744 149.799C43.3131 148.26 43.7139 146.735 43.9181 145.267C44.246 142.912 44.0577 140.83 43.1264 139.098C41.9306 136.874 39.694 135.623 36.6971 135.505C31.3756 135.295 28.1286 138.62 26.7215 143.756C26.0589 146.174 25.8742 148.623 25.9396 150.67C25.9436 150.794 25.9478 150.886 25.9513 150.945Z" fill="#6CA1FF"/>
<path fill-rule="evenodd" clip-rule="evenodd" d="M70.6533 88.9522H82.1421C84.4244 88.9522 86.291 87.0852 86.291 84.8033V78.0659C86.291 75.784 84.4244 73.9171 82.1421 73.9171H70.6533C68.371 73.9171 66.5044 75.784 66.5044 78.0659V84.8033C66.5044 87.0852 68.371 88.9522 70.6533 88.9522Z" fill="#19141E"/>
<path opacity="0.399182" fill-rule="evenodd" clip-rule="evenodd" d="M45.0981 67.2718C47.2237 63.0687 52.4021 61.3694 56.6049 63.4953L57.313 63.8535C61.5158 65.9794 63.2154 71.1576 61.0895 75.3607L49.0613 99.1402C46.935 103.343 41.7572 105.043 37.5544 102.917L36.846 102.559C32.6432 100.433 30.9439 95.2545 33.0698 91.0514L45.0981 67.2718ZM92.9672 102.384C91.6696 101.588 91.0948 100.061 91.4492 98.6586C89.9351 100.057 88.1079 101.121 86.0883 101.73C87.4159 105.941 91.8184 108.51 96.1886 107.497L96.962 107.318C101.55 106.255 104.435 101.631 103.372 97.043L97.3568 71.0819C96.5897 67.7697 93.9672 65.3457 90.8417 64.653C93.9111 67.1752 95.8774 70.9971 95.8774 75.256V88.5852C95.8774 91.4608 94.981 94.1371 93.4539 96.3486C94.4204 95.9535 95.5556 96.0081 96.5142 96.5955C98.1125 97.575 98.6142 99.6646 97.6347 101.263C96.6552 102.861 94.5656 103.363 92.9672 102.384ZM109.448 151.521L113.317 148.067C113.301 148.049 113.256 147.997 113.185 147.911C113.057 147.758 112.912 147.578 112.754 147.373C112.297 146.78 111.839 146.119 111.414 145.414C110.364 143.673 109.709 141.981 109.611 140.545C109.509 139.048 109.999 137.916 111.344 136.934C112.494 136.095 113.123 136.057 113.791 136.488C114.594 137.005 115.455 138.198 116.222 139.862C116.683 140.862 117.077 141.954 117.4 143.049C117.514 143.433 117.609 143.788 117.688 144.104C117.733 144.286 117.761 144.409 117.772 144.461L122.845 143.386C122.822 143.278 122.781 143.098 122.722 142.858C122.626 142.47 122.51 142.041 122.374 141.581C121.986 140.263 121.508 138.942 120.931 137.691C119.789 135.213 118.401 133.288 116.599 132.128C114.072 130.5 111.12 130.678 108.287 132.745C105.457 134.81 104.217 137.675 104.437 140.898C104.6 143.295 105.535 145.708 106.974 148.093C107.506 148.976 108.074 149.795 108.644 150.535C108.992 150.988 109.271 151.322 109.448 151.521ZM42.418 91.1143C44.2124 91.6565 45.2271 93.5508 44.6854 95.3451C44.1432 97.1395 42.2489 98.1543 40.4546 97.6125C38.6602 97.07 37.6451 95.1761 38.1872 93.3817C38.7293 91.587 40.6236 90.5722 42.418 91.1143ZM55.9723 73.0305C56.5144 71.2361 55.4993 69.3422 53.7049 68.7997C51.9105 68.2576 50.0162 69.2727 49.4741 71.0671C48.932 72.8614 49.9471 74.7554 51.7415 75.2979C53.5359 75.84 55.4302 74.8249 55.9723 73.0305ZM25.9538 150.979L31.1308 150.673C31.13 150.66 31.1279 150.614 31.1255 150.538C31.1078 149.985 31.1183 149.275 31.1788 148.472C31.2659 147.318 31.4433 146.19 31.7257 145.16C32.5638 142.101 34.0072 140.623 36.4952 140.721C38.6388 140.805 39.1721 141.797 38.784 144.586C38.6325 145.675 38.3157 146.88 37.8819 148.119C37.6538 148.771 37.4088 149.388 37.1648 149.948C37.0805 150.142 37.0029 150.313 36.9344 150.459C36.896 150.542 36.8709 150.593 36.8616 150.612L41.5066 152.918C41.5966 152.737 41.74 152.431 41.9192 152.02C42.212 151.348 42.5038 150.613 42.7768 149.833C43.3155 148.294 43.7163 146.769 43.9206 145.301C44.2484 142.945 44.0601 140.864 43.1288 139.132C41.9331 136.907 39.6965 135.657 36.6995 135.539C31.378 135.329 28.131 138.654 26.7239 143.789C26.0613 146.208 25.8766 148.656 25.942 150.704C25.946 150.828 25.9503 150.92 25.9538 150.979Z" fill="black"/>
<path opacity="0.601772" fill-rule="evenodd" clip-rule="evenodd" d="M44.6749 95.3377C44.1327 97.132 42.2384 98.1468 40.4441 97.605C38.6497 97.0625 37.6346 95.1686 38.1767 93.3742C38.7188 91.5795 40.6131 90.5647 42.4075 91.1069C44.2019 91.649 45.2166 93.5433 44.6749 95.3377ZM55.9622 73.023C55.42 74.8174 53.5257 75.8325 51.7314 75.2903C49.937 74.7479 48.9219 72.8539 49.464 71.0595C50.0061 69.2652 51.9004 68.2501 53.6948 68.7922C55.4892 69.3346 56.5043 71.2286 55.9622 73.023ZM97.632 101.283C96.6526 102.882 94.5629 103.383 92.9646 102.404C91.3666 101.424 90.8649 99.3346 91.8444 97.7363C92.8235 96.1383 94.9132 95.6363 96.5115 96.6157C98.1099 97.5952 98.6115 99.6849 97.632 101.283Z" fill="black"/>
<path d="M93.6851 39.1127V14.9643" stroke="#19141E" stroke-width="2.42017"/>
<path fill-rule="evenodd" clip-rule="evenodd" d="M95.858 49.3625H85.873V34.4795H95.858C99.9508 34.4795 103.299 37.828 103.299 41.9208C103.299 46.0137 99.9508 49.3625 95.858 49.3625Z" fill="#19141E"/>
<path fill-rule="evenodd" clip-rule="evenodd" d="M88.3316 10.2262C88.6771 7.5773 90.9424 5.5318 93.6854 5.5318C96.6671 5.5318 99.0845 7.9492 99.0845 10.9312C99.0845 13.9132 96.6671 16.3306 93.6854 16.3306C91.5044 16.3306 89.6255 15.0375 88.7734 13.1761L85.008 10.2952L79.8843 14.2153L74.7643 10.2955L69.6429 14.2154L64.5229 10.2955L59.4019 14.2154L56.5751 12.0515C56.0594 14.4959 53.8903 16.3306 51.2925 16.3306C48.3105 16.3306 45.8931 13.9132 45.8931 10.9312C45.8931 7.9492 48.3105 5.5318 51.2925 5.5318C53.7234 5.5318 55.7789 7.13829 56.4556 9.34751L59.4019 11.603L64.523 7.68296L69.6431 11.603L74.7645 7.68298L79.8847 11.6031L85.008 7.68324L88.3316 10.2262ZM91.7349 60.3603H52.8705C49.7761 60.3603 47.2678 57.852 47.2678 54.7576V29.0845C47.2678 25.9901 49.7761 23.4814 52.8705 23.4814H91.7349C94.8293 23.4814 97.3376 25.9901 97.3376 29.0845V54.7576C97.3376 57.852 94.8293 60.3603 91.7349 60.3603ZM56.4926 65.442H88.1124C89.5158 65.442 90.6532 64.3046 90.6532 62.9012C90.6532 61.4978 89.5158 60.3604 88.1124 60.3604H56.4926C55.0896 60.3604 53.9517 61.4978 53.9517 62.9012C53.9517 64.3046 55.0896 65.442 56.4926 65.442Z" fill="#6CA1FF"/>
<path opacity="0.404367" d="M64.5226 10.2955L59.4016 14.2154L56.575 12.0723L56.4419 9.33822L59.4017 11.603L64.5228 7.68298L69.6428 11.603L74.7643 7.683L79.8844 11.6031L85.0077 7.68326L88.2858 10.2952L88.8309 13.1938L85.0077 10.2952L79.884 14.2154L74.7641 10.2955L69.6427 14.2155L64.5226 10.2955Z" fill="black"/>
<path opacity="0.395624" fill-rule="evenodd" clip-rule="evenodd" d="M88.1123 65.442H56.4925C55.0895 65.442 53.9517 64.3045 53.9517 62.9012C53.9517 61.4978 55.0895 60.3604 56.4925 60.3604H88.1123C89.5157 60.3604 90.6532 61.4978 90.6532 62.9012C90.6532 64.3045 89.5157 65.442 88.1123 65.442Z" fill="black"/>
<path fill-rule="evenodd" clip-rule="evenodd" d="M45.4729 49.3625H55.4575V34.4795H45.4729C41.3801 34.4795 38.0312 37.828 38.0312 41.9208C38.0312 46.0137 41.3801 49.3625 45.4729 49.3625Z" fill="#19141E"/>
<path fill-rule="evenodd" clip-rule="evenodd" d="M93.6852 41.9208C93.6852 47.6116 89.9996 52.2252 85.4535 52.2252C80.9074 52.2252 77.2222 47.6116 77.2222 41.9208C77.2222 36.2299 80.9074 31.6164 85.4535 31.6164C89.9996 31.6164 93.6852 36.2299 93.6852 41.9208Z" fill="#19141E"/>
<path fill-rule="evenodd" clip-rule="evenodd" d="M81.5854 52.2252H85.4536V31.6164H81.5854V52.2252Z" fill="#19141E"/>
<path fill-rule="evenodd" clip-rule="evenodd" d="M89.817 41.9208C89.817 47.6116 86.1318 52.2252 81.5853 52.2252C77.0392 52.2252 73.354 47.6116 73.354 41.9208C73.354 36.2299 77.0392 31.6164 81.5853 31.6164C86.1318 31.6164 89.817 36.2299 89.817 41.9208Z" fill="white"/>
<path fill-rule="evenodd" clip-rule="evenodd" d="M85.7992 41.2293C85.7992 43.2325 84.502 44.8568 82.9015 44.8568C81.3011 44.8568 80.0039 43.2325 80.0039 41.2293C80.0039 39.2261 81.3011 37.6018 82.9015 37.6018C84.502 37.6018 85.7992 39.2261 85.7992 41.2293Z" fill="#19141E"/>
<path d="M51.2925 39.1127V16.0769" stroke="#19141E" stroke-width="2.42017"/>
</svg>
