<svg width="96" height="96" viewBox="0 0 96 96" fill="none" xmlns="http://www.w3.org/2000/svg">
<path d="M1.8538 34.7891C-0.441505 42.8067 -0.608291 51.2839 1.36988 59.3856C3.34805 67.4873 7.40292 74.9338 13.1349 80.9913C18.867 87.0489 26.0783 91.5085 34.0585 93.9308C42.0386 96.353 50.5122 96.6543 58.6442 94.8049C66.7763 92.9556 74.2862 89.0194 80.4339 83.3842C86.5817 77.749 91.1552 70.6093 93.7038 62.6686C96.2523 54.7279 96.688 46.2602 94.9679 38.0998C93.2478 29.9394 89.4313 22.368 83.8944 16.1316L48 48L1.8538 34.7891Z" fill="#FDE8D0"/>
<path d="M23 35H75V73H23V35Z" fill="#FAEFDE"/>
<path d="M31 28H67L75 36H23L31 28ZM27 68H71C73.209 68 75 69.791 75 72V73H23V72C23 69.791 24.791 68 27 68Z" fill="#EFD8BE"/>
<path d="M42 49H56C57.657 49 59 50.343 59 52C59 53.657 57.657 55 56 55H42C40.343 55 39 53.657 39 52C39 50.343 40.343 49 42 49Z" fill="#D3A9B0"/>
<path d="M34 66.0601C33.448 66.0601 33 66.5081 33 67.0601V69.0601C33 69.6121 33.448 70.0601 34 70.0601C34.552 70.0601 35 69.6121 35 69.0601V67.0601C35 66.5081 34.552 66.0601 34 66.0601ZM29 66.0601C28.448 66.0601 28 66.5081 28 67.0601V69.0601C28 69.6121 28.448 70.0601 29 70.0601C29.552 70.0601 30 69.6121 30 69.0601V67.0601C30 66.5081 29.552 66.0601 29 66.0601ZM39 66.0601C38.448 66.0601 38 66.5081 38 67.0601V69.0601C38 69.6121 38.448 70.0601 39 70.0601C39.552 70.0601 40 69.6121 40 69.0601V67.0601C40 66.5081 39.552 66.0601 39 66.0601ZM44 66.0601C43.448 66.0601 43 66.5081 43 67.0601V69.0601C43 69.6121 43.448 70.0601 44 70.0601C44.552 70.0601 45 69.6121 45 69.0601V67.0601C45 66.5081 44.552 66.0601 44 66.0601ZM49 66.0601C48.448 66.0601 48 66.5081 48 67.0601V69.0601C48 69.6121 48.448 70.0601 49 70.0601C49.552 70.0601 50 69.6121 50 69.0601V67.0601C50 66.5081 49.552 66.0601 49 66.0601ZM54 66.0601C53.448 66.0601 53 66.5081 53 67.0601V69.0601C53 69.6121 53.448 70.0601 54 70.0601C54.552 70.0601 55 69.6121 55 69.0601V67.0601C55 66.5081 54.552 66.0601 54 66.0601ZM59 66.0601C58.448 66.0601 58 66.5081 58 67.0601V69.0601C58 69.6121 58.448 70.0601 59 70.0601C59.552 70.0601 60 69.6121 60 69.0601V67.0601C60 66.5081 59.552 66.0601 59 66.0601ZM64 66.0601C63.448 66.0601 63 66.5081 63 67.0601V69.0601C63 69.6121 63.448 70.0601 64 70.0601C64.552 70.0601 65 69.6121 65 69.0601V67.0601C65 66.5081 64.552 66.0601 64 66.0601ZM69 66.0601C68.448 66.0601 68 66.5081 68 67.0601V69.0601C68 69.6121 68.448 70.0601 69 70.0601C69.552 70.0601 70 69.6121 70 69.0601V67.0601C70 66.5081 69.552 66.0601 69 66.0601Z" fill="#8D6C9F"/>
<path d="M31 35L45 21L48 24L53 19L69 35H31Z" fill="#ACE3FF"/>
<path d="M48 24L59 35L69.25 35.125L53 19L48 24Z" fill="#85CBF8"/>
<path d="M56 48H42C39.791 48 38 49.791 38 52C38 54.209 39.791 56 42 56H56C58.209 56 60 54.209 60 52C60 49.791 58.209 48 56 48ZM56 54H42C40.895 54 40 53.105 40 52C40 50.895 40.895 50 42 50H56C57.105 50 58 50.895 58 52C58 53.105 57.105 54 56 54Z" fill="#8D6C9F"/>
<path d="M73 74H25C23.346 74 22 72.654 22 71V37C22 35.346 23.346 34 25 34H73C74.654 34 76 35.346 76 37V71C76 72.654 74.654 74 73 74ZM25 36C24.449 36 24 36.448 24 37V71C24 71.552 24.449 72 25 72H73C73.551 72 74 71.552 74 71V37C74 36.448 73.551 36 73 36H25Z" fill="#8D6C9F"/>
<path d="M23 37C22.744 37 22.488 36.902 22.293 36.707C21.902 36.316 21.902 35.684 22.293 35.293L30.293 27.293C30.684 26.902 31.316 26.902 31.707 27.293C32.098 27.684 32.098 28.316 31.707 28.707L23.707 36.707C23.512 36.902 23.256 37 23 37ZM75 37C74.744 37 74.488 36.902 74.293 36.707L66.293 28.707C65.902 28.316 65.902 27.684 66.293 27.293C66.684 26.902 67.316 26.902 67.707 27.293L75.707 35.293C76.098 35.684 76.098 36.316 75.707 36.707C75.512 36.902 75.256 37 75 37Z" fill="#8D6C9F"/>
<path d="M38 29H31C30.448 29 30 28.553 30 28C30 27.447 30.448 27 31 27H38C38.552 27 39 27.447 39 28C39 28.553 38.552 29 38 29ZM67 29H62C61.448 29 61 28.553 61 28C61 27.447 61.448 27 62 27H67C67.552 27 68 27.447 68 28C68 28.553 67.552 29 67 29Z" fill="#8D6C9F"/>
<path d="M55 32C54.744 32 54.488 31.902 54.293 31.707L45 22.414L35.707 31.707C35.316 32.098 34.684 32.098 34.293 31.707C33.902 31.316 33.902 30.684 34.293 30.293L44.293 20.293C44.684 19.902 45.316 19.902 45.707 20.293L55.707 30.293C56.098 30.684 56.098 31.316 55.707 31.707C55.512 31.902 55.256 32 55 32Z" fill="#8D6C9F"/>
<path d="M65 32C64.744 32 64.488 31.902 64.293 31.707L53 20.414L48.707 24.707C48.316 25.098 47.684 25.098 47.293 24.707C46.902 24.316 46.902 23.684 47.293 23.293L52.293 18.293C52.684 17.902 53.316 17.902 53.707 18.293L65.707 30.293C66.098 30.684 66.098 31.316 65.707 31.707C65.512 31.902 65.256 32 65 32Z" fill="#8D6C9F"/>
</svg>
