<svg width="128" height="128" viewBox="0 0 128 128" fill="none" xmlns="http://www.w3.org/2000/svg">
<path d="M0.929721 74.8692C3.4393 89.4315 10.9107 102.677 22.0757 112.356C33.2407 122.036 47.4113 127.554 62.1822 127.974C76.9532 128.394 91.4143 123.689 103.111 114.659C114.807 105.629 123.019 92.8292 126.351 78.433L64 64L0.929721 74.8692Z" fill="#FDE8D0"/>
<path d="M36.5 91.5C35.8088 91.5 35.25 90.9412 35.25 90.25V37.75C35.25 37.0588 35.8088 36.5 36.5 36.5C37.1912 36.5 37.75 37.0588 37.75 37.75V90.25C37.75 90.9412 37.1912 91.5 36.5 91.5ZM51.5 91.5C50.8088 91.5 50.25 90.9412 50.25 90.25V37.75C50.25 37.0588 50.8088 36.5 51.5 36.5C52.1912 36.5 52.75 37.0588 52.75 37.75V90.25C52.75 90.9412 52.1912 91.5 51.5 91.5ZM71.5 91.5C70.8088 91.5 70.25 90.9412 70.25 90.25V37.75C70.25 37.0588 70.8088 36.5 71.5 36.5C72.1912 36.5 72.75 37.0588 72.75 37.75V90.25C72.75 90.9412 72.1912 91.5 71.5 91.5ZM76.5 91.5C75.8088 91.5 75.25 90.9412 75.25 90.25V37.75C75.25 37.0588 75.8088 36.5 76.5 36.5C77.1912 36.5 77.75 37.0588 77.75 37.75V90.25C77.75 90.9412 77.1912 91.5 76.5 91.5ZM81.5 91.5C80.8088 91.5 80.25 90.9412 80.25 90.25V37.75C80.25 37.0588 80.8088 36.5 81.5 36.5C82.1912 36.5 82.75 37.0588 82.75 37.75V90.25C82.75 90.9412 82.1912 91.5 81.5 91.5ZM56.5 91.5C55.8088 91.5 55.25 90.9412 55.25 90.25V37.75C55.25 37.0588 55.8088 36.5 56.5 36.5C57.1912 36.5 57.75 37.0588 57.75 37.75V90.25C57.75 90.9412 57.1912 91.5 56.5 91.5ZM41.5 37.75H46.5V90.25H41.5V37.75Z" fill="#8D6C9F"/>
<path d="M46.5 91.5H41.5C40.8088 91.5 40.25 90.9412 40.25 90.25V37.75C40.25 37.0588 40.8088 36.5 41.5 36.5H46.5C47.1912 36.5 47.75 37.0588 47.75 37.75V90.25C47.75 90.9412 47.1912 91.5 46.5 91.5ZM42.75 89H45.25V39H42.75V89ZM61.5 37.75H66.5V90.25H61.5V37.75Z" fill="#8D6C9F"/>
<path d="M66.5 91.5H61.5C60.8088 91.5 60.25 90.9412 60.25 90.25V37.75C60.25 37.0588 60.8088 36.5 61.5 36.5H66.5C67.1912 36.5 67.75 37.0588 67.75 37.75V90.25C67.75 90.9412 67.1912 91.5 66.5 91.5ZM62.75 89H65.25V39H62.75V89Z" fill="#8D6C9F"/>
<path d="M86.5 37.75H91.5V90.25H86.5V37.75Z" fill="#8D6C9F"/>
<path d="M91.5 91.5H86.5C85.8088 91.5 85.25 90.9412 85.25 90.25V37.75C85.25 37.0588 85.8088 36.5 86.5 36.5H91.5C92.1912 36.5 92.75 37.0588 92.75 37.75V90.25C92.75 90.9412 92.1912 91.5 91.5 91.5ZM87.75 89H90.25V39H87.75V89Z" fill="#8D6C9F"/>
<path d="M30.25 57.75H97.75V67.75H30.25V57.75Z" fill="#F7A1C8"/>
<path d="M97.75 69H30.25C29.5588 69 29 68.4412 29 67.75V57.75C29 57.0588 29.5588 56.5 30.25 56.5H97.75C98.4413 56.5 99 57.0588 99 57.75V67.75C99 68.4412 98.4413 69 97.75 69ZM31.5 66.5H96.5V59H31.5V66.5Z" fill="#8D6C9F"/>
<path d="M40.25 59H47.75V65.25H40.25V59ZM35.25 59H37.75V65.25H35.25V59ZM85.25 59H92.75V65.25H85.25V59ZM50.25 59H52.75V65.25H50.25V59ZM80.25 59H82.75V65.25H80.25V59ZM55.25 59H57.75V65.25H55.25V59ZM75.25 59H77.75V65.25H75.25V59ZM70.25 59H72.75V65.25H70.25V59ZM60.25 59H67.75V65.25H60.25V59Z" fill="#ED7899"/>
<path d="M30.25 39C29.5588 39 29 38.4412 29 37.75V30.25C29 29.5588 29.5588 29 30.25 29H37.75C38.4412 29 39 29.5588 39 30.25C39 30.9412 38.4412 31.5 37.75 31.5H31.5V37.75C31.5 38.4412 30.9412 39 30.25 39Z" fill="#8D6C9F"/>
<path d="M97.75 39C97.0588 39 96.5 38.4412 96.5 37.75V31.5H90.25C89.5588 31.5 89 30.9412 89 30.25C89 29.5588 89.5588 29 90.25 29H97.75C98.4412 29 99 29.5588 99 30.25V37.75C99 38.4412 98.4412 39 97.75 39Z" fill="#8D6C9F"/>
<path d="M97.75 99H90.25C89.5588 99 89 98.4412 89 97.75C89 97.0588 89.5588 96.5 90.25 96.5H96.5V90.25C96.5 89.5588 97.0588 89 97.75 89C98.4412 89 99 89.5588 99 90.25V97.75C99 98.4412 98.4412 99 97.75 99Z" fill="#8D6C9F"/>
<path d="M37.75 99H30.25C29.5588 99 29 98.4412 29 97.75V90.25C29 89.5588 29.5588 89 30.25 89C30.9412 89 31.5 89.5588 31.5 90.25V96.5H37.75C38.4412 96.5 39 97.0588 39 97.75C39 98.4412 38.4412 99 37.75 99Z" fill="#8D6C9F"/>
</svg>
