<svg width="96" height="96" viewBox="0 0 96 96" fill="none" xmlns="http://www.w3.org/2000/svg">
<path d="M8.8981 20.1604C5.03585 25.5851 2.3446 31.7541 0.995452 38.2752C-0.353697 44.7962 -0.331222 51.5266 1.06145 58.0385C2.45411 64.5504 5.18651 70.7013 9.08489 76.1001C12.9833 81.4989 17.9624 86.0274 23.7056 89.3978C29.4488 92.7683 35.8305 94.9068 42.4449 95.6775C49.0593 96.4481 55.7617 95.8341 62.1259 93.8744C68.4902 91.9146 74.3771 88.6521 79.4122 84.2942C84.4474 79.9363 88.5208 74.5784 91.3733 68.5612L48 48L8.8981 20.1604Z" fill="#FDE8D0"/>
<path d="M23 37H75V71H23V37Z" fill="#FAEFDE"/>
<path d="M23 37H75V41H23V37ZM27 66H71C72.0609 66 73.0783 66.4214 73.8284 67.1716C74.5786 67.9217 75 68.9391 75 70V71H23V70C23 68.9391 23.4214 67.9217 24.1716 67.1716C24.9217 66.4214 25.9391 66 27 66Z" fill="#EFD8BE"/>
<path d="M21 27H77V37H21V27Z" fill="#FAEFDE"/>
<path d="M56 43H42C40.3431 43 39 44.3431 39 46C39 47.6569 40.3431 49 42 49H56C57.6569 49 59 47.6569 59 46C59 44.3431 57.6569 43 56 43Z" fill="#CDA1A7"/>
<path d="M21 27H77V28C77 28.7956 76.6839 29.5587 76.1213 30.1213C75.5587 30.6839 74.7957 31 74 31H24C23.2044 31 22.4413 30.6839 21.8787 30.1213C21.3161 29.5587 21 28.7956 21 28V27Z" fill="#FFF7F0"/>
<path d="M75 26.06H23C22.2044 26.06 21.4413 26.3761 20.8787 26.9387C20.3161 27.5013 20 28.2643 20 29.06V35.06C19.9997 35.6806 20.1919 36.2861 20.5501 36.793C20.9083 37.2998 21.4148 37.6831 22 37.89V69.06C22 69.8556 22.3161 70.6187 22.8787 71.1813C23.4413 71.7439 24.2044 72.06 25 72.06H73C73.7957 72.06 74.5587 71.7439 75.1213 71.1813C75.6839 70.6187 76 69.8556 76 69.06V37.89C76.5852 37.6831 77.0917 37.2998 77.4499 36.793C77.8081 36.2861 78.0003 35.6806 78 35.06V29.06C78 28.2643 77.6839 27.5013 77.1213 26.9387C76.5587 26.3761 75.7957 26.06 75 26.06ZM76 35.06C76 35.3252 75.8946 35.5796 75.7071 35.7671C75.5196 35.9546 75.2652 36.06 75 36.06H71C70.7348 36.06 70.4804 36.1654 70.2929 36.3529C70.1054 36.5404 70 36.7948 70 37.06C70 37.3252 70.1054 37.5796 70.2929 37.7671C70.4804 37.9546 70.7348 38.06 71 38.06H74V69.06C74 69.3252 73.8946 69.5796 73.7071 69.7671C73.5196 69.9546 73.2652 70.06 73 70.06H25C24.7348 70.06 24.4804 69.9546 24.2929 69.7671C24.1054 69.5796 24 69.3252 24 69.06V38.06H59C59.2652 38.06 59.5196 37.9546 59.7071 37.7671C59.8946 37.5796 60 37.3252 60 37.06C60 36.7948 59.8946 36.5404 59.7071 36.3529C59.5196 36.1654 59.2652 36.06 59 36.06H23C22.7348 36.06 22.4804 35.9546 22.2929 35.7671C22.1054 35.5796 22 35.3252 22 35.06V29.06C22 28.7948 22.1054 28.5404 22.2929 28.3529C22.4804 28.1654 22.7348 28.06 23 28.06H75C75.2652 28.06 75.5196 28.1654 75.7071 28.3529C75.8946 28.5404 76 28.7948 76 29.06V35.06Z" fill="#8D6C9F"/>
<path d="M34 64.06C33.7348 64.06 33.4804 64.1654 33.2929 64.3529C33.1054 64.5404 33 64.7948 33 65.06V67.06C33 67.3252 33.1054 67.5796 33.2929 67.7671C33.4804 67.9546 33.7348 68.06 34 68.06C34.2652 68.06 34.5196 67.9546 34.7071 67.7671C34.8946 67.5796 35 67.3252 35 67.06V65.06C35 64.7948 34.8946 64.5404 34.7071 64.3529C34.5196 64.1654 34.2652 64.06 34 64.06ZM29 64.06C28.7348 64.06 28.4804 64.1654 28.2929 64.3529C28.1054 64.5404 28 64.7948 28 65.06V67.06C28 67.3252 28.1054 67.5796 28.2929 67.7671C28.4804 67.9546 28.7348 68.06 29 68.06C29.2652 68.06 29.5196 67.9546 29.7071 67.7671C29.8946 67.5796 30 67.3252 30 67.06V65.06C30 64.7948 29.8946 64.5404 29.7071 64.3529C29.5196 64.1654 29.2652 64.06 29 64.06ZM39 64.06C38.7348 64.06 38.4804 64.1654 38.2929 64.3529C38.1054 64.5404 38 64.7948 38 65.06V67.06C38 67.3252 38.1054 67.5796 38.2929 67.7671C38.4804 67.9546 38.7348 68.06 39 68.06C39.2652 68.06 39.5196 67.9546 39.7071 67.7671C39.8946 67.5796 40 67.3252 40 67.06V65.06C40 64.7948 39.8946 64.5404 39.7071 64.3529C39.5196 64.1654 39.2652 64.06 39 64.06ZM44 64.06C43.7348 64.06 43.4804 64.1654 43.2929 64.3529C43.1054 64.5404 43 64.7948 43 65.06V67.06C43 67.3252 43.1054 67.5796 43.2929 67.7671C43.4804 67.9546 43.7348 68.06 44 68.06C44.2652 68.06 44.5196 67.9546 44.7071 67.7671C44.8946 67.5796 45 67.3252 45 67.06V65.06C45 64.7948 44.8946 64.5404 44.7071 64.3529C44.5196 64.1654 44.2652 64.06 44 64.06ZM49 64.06C48.7348 64.06 48.4804 64.1654 48.2929 64.3529C48.1054 64.5404 48 64.7948 48 65.06V67.06C48 67.3252 48.1054 67.5796 48.2929 67.7671C48.4804 67.9546 48.7348 68.06 49 68.06C49.2652 68.06 49.5196 67.9546 49.7071 67.7671C49.8946 67.5796 50 67.3252 50 67.06V65.06C50 64.7948 49.8946 64.5404 49.7071 64.3529C49.5196 64.1654 49.2652 64.06 49 64.06ZM54 64.06C53.7348 64.06 53.4804 64.1654 53.2929 64.3529C53.1054 64.5404 53 64.7948 53 65.06V67.06C53 67.3252 53.1054 67.5796 53.2929 67.7671C53.4804 67.9546 53.7348 68.06 54 68.06C54.2652 68.06 54.5196 67.9546 54.7071 67.7671C54.8946 67.5796 55 67.3252 55 67.06V65.06C55 64.7948 54.8946 64.5404 54.7071 64.3529C54.5196 64.1654 54.2652 64.06 54 64.06ZM59 64.06C58.7348 64.06 58.4804 64.1654 58.2929 64.3529C58.1054 64.5404 58 64.7948 58 65.06V67.06C58 67.3252 58.1054 67.5796 58.2929 67.7671C58.4804 67.9546 58.7348 68.06 59 68.06C59.2652 68.06 59.5196 67.9546 59.7071 67.7671C59.8946 67.5796 60 67.3252 60 67.06V65.06C60 64.7948 59.8946 64.5404 59.7071 64.3529C59.5196 64.1654 59.2652 64.06 59 64.06ZM64 64.06C63.7348 64.06 63.4804 64.1654 63.2929 64.3529C63.1054 64.5404 63 64.7948 63 65.06V67.06C63 67.3252 63.1054 67.5796 63.2929 67.7671C63.4804 67.9546 63.7348 68.06 64 68.06C64.2652 68.06 64.5196 67.9546 64.7071 67.7671C64.8946 67.5796 65 67.3252 65 67.06V65.06C65 64.7948 64.8946 64.5404 64.7071 64.3529C64.5196 64.1654 64.2652 64.06 64 64.06ZM69 64.06C68.7348 64.06 68.4804 64.1654 68.2929 64.3529C68.1054 64.5404 68 64.7948 68 65.06V67.06C68 67.3252 68.1054 67.5796 68.2929 67.7671C68.4804 67.9546 68.7348 68.06 69 68.06C69.2652 68.06 69.5196 67.9546 69.7071 67.7671C69.8946 67.5796 70 67.3252 70 67.06V65.06C70 64.7948 69.8946 64.5404 69.7071 64.3529C69.5196 64.1654 69.2652 64.06 69 64.06ZM67 36.06H63C62.7348 36.06 62.4804 36.1654 62.2929 36.3529C62.1054 36.5404 62 36.7948 62 37.06C62 37.3252 62.1054 37.5796 62.2929 37.7671C62.4804 37.9546 62.7348 38.06 63 38.06H67C67.2652 38.06 67.5196 37.9546 67.7071 37.7671C67.8946 37.5796 68 37.3252 68 37.06C68 36.7948 67.8946 36.5404 67.7071 36.3529C67.5196 36.1654 67.2652 36.06 67 36.06ZM56 42H42C40.9391 42 39.9217 42.4214 39.1716 43.1716C38.4214 43.9217 38 44.9391 38 46C38 47.0609 38.4214 48.0783 39.1716 48.8284C39.9217 49.5786 40.9391 50 42 50H56C57.0609 50 58.0783 49.5786 58.8284 48.8284C59.5786 48.0783 60 47.0609 60 46C60 44.9391 59.5786 43.9217 58.8284 43.1716C58.0783 42.4214 57.0609 42 56 42ZM56 48H42C41.4696 48 40.9609 47.7893 40.5858 47.4142C40.2107 47.0391 40 46.5304 40 46C40 45.4696 40.2107 44.9609 40.5858 44.5858C40.9609 44.2107 41.4696 44 42 44H56C56.5304 44 57.0391 44.2107 57.4142 44.5858C57.7893 44.9609 58 45.4696 58 46C58 46.5304 57.7893 47.0391 57.4142 47.4142C57.0391 47.7893 56.5304 48 56 48Z" fill="#8D6C9F"/>
<path fill-rule="evenodd" clip-rule="evenodd" d="M59 52C59 46.47 63.47 42 69 42C74.53 42 79 46.47 79 52C79 57.53 74.53 62 69 62C63.47 62 59 57.53 59 52ZM72.59 57L74 55.59L70.41 52L74 48.41L72.59 47L69 50.59L65.41 47L64 48.41L67.59 52L64 55.59L65.41 57L69 53.41L72.59 57Z" fill="#EB5757"/>
</svg>
