<svg width="96" height="124" viewBox="0 0 96 124" fill="none" xmlns="http://www.w3.org/2000/svg">
    <path d="M0.697291 56.1519C2.57948 67.0736 8.18301 77.0075 16.5568 84.2674C24.9305 91.5273 35.5585 95.6659 46.6367 95.9806C57.7149 96.2954 68.5607 92.767 77.3332 85.9943C86.1056 79.2216 92.2642 69.6219 94.7635 58.8247L48 48L0.697291 56.1519Z" fill="#FDE8D0"/>
    <path d="M69.392 34.322L36 41C28.322 41 26.539 29.569 26.125 25.188C26.014 24.013 26.937 23 28.117 23H69C70.105 23 71 23.895 71 25V32.36C71 33.314 70.327 34.135 69.392 34.322Z" fill="#C2CDE7"/>
    <path d="M69 23H28.117C26.936 23 26.014 24.013 26.125 25.188C26.177 25.738 26.251 26.399 26.355 27.134C26.716 27.657 27.317 28 28 28H68.883C70.064 28 70.986 26.987 70.875 25.812C70.823 25.262 70.749 24.601 70.645 23.866C70.284 23.343 69.683 23 69 23Z" fill="#E2E9F7"/>
    <path d="M52 38C55.417 38.463 58 41.456 58 45C58 46.6 57.243 48.067 56.334 49.252C55.49 50.352 56.063 51.956 57.395 52.342C57.726 52.438 58.06 52.555 58.396 52.697C61.435 53.973 63.643 56.832 63.958 60.113C64.105 61.642 63.392 63.502 62.533 65.123C61.6 66.882 62.883 69 64.875 69H66.959C72.285 69 75.959 63.662 74.057 58.687L66 35" fill="#C2CDE7"/>
    <path d="M36 42C27.615 42 25.604 30.309 25.13 25.282C25.05 24.443 25.329 23.604 25.896 22.981C26.464 22.357 27.272 22 28.117 22H69C70.654 22 72 23.346 72 25V32.36C72 33.785 70.986 35.023 69.589 35.302L36.196 41.98C36.132 41.994 36.065 42 36 42ZM28.117 24C27.831 24 27.567 24.116 27.376 24.327C27.185 24.537 27.094 24.809 27.12 25.094C27.542 29.554 29.241 39.901 35.904 40L69.196 33.342C69.662 33.248 70 32.835 70 32.36V25C70 24.449 69.552 24 69 24H28.117Z" fill="#8D6C9F"/>
    <path d="M66.959 70H64.875C63.583 70 62.413 69.339 61.747 68.231C61.083 67.127 61.046 65.791 61.648 64.654C62.612 62.835 63.066 61.297 62.961 60.208C62.688 57.353 60.743 54.767 58.007 53.618C57.708 53.493 57.411 53.388 57.116 53.302C56.156 53.024 55.398 52.291 55.087 51.343C54.783 50.419 54.952 49.409 55.539 48.644C56.509 47.381 57 46.156 57 45C57 41.971 54.793 39.388 51.865 38.991C51.318 38.917 50.934 38.413 51.009 37.866C51.084 37.319 51.583 36.934 52.135 37.01C56.049 37.54 59 40.975 59 45C59 46.606 58.37 48.242 57.127 49.861C56.871 50.196 56.93 50.543 56.988 50.719C57.092 51.04 57.349 51.287 57.673 51.381C58.044 51.488 58.417 51.62 58.783 51.774C62.187 53.204 64.609 56.44 64.952 60.017C65.098 61.517 64.58 63.393 63.416 65.591C63.141 66.11 63.157 66.696 63.461 67.2C63.762 67.701 64.291 68 64.875 68H66.959C69.164 68 71.146 66.958 72.396 65.143C73.645 63.327 73.911 61.104 73.124 59.045L65.055 35.322C64.876 34.8 65.157 34.231 65.679 34.053C66.208 33.876 66.771 34.156 66.948 34.678L75.005 58.366C76.004 60.974 75.65 63.945 74.045 66.277C72.438 68.608 69.79 70 66.959 70ZM23 70C22.447 70 22 69.552 22 69V53C22 52.448 22.447 52 23 52C23.553 52 24 52.448 24 53V69C24 69.552 23.553 70 23 70ZM28 70C27.447 70 27 69.552 27 69V53C27 52.448 27.447 52 28 52C28.553 52 29 52.448 29 53V69C29 69.552 28.553 70 28 70ZM33 70C32.447 70 32 69.552 32 69V53C32 52.448 32.447 52 33 52C33.553 52 34 52.448 34 53V69C34 69.552 33.553 70 33 70ZM48 70C47.447 70 47 69.552 47 69V53C47 52.448 47.447 52 48 52C48.553 52 49 52.448 49 53V69C49 69.552 48.553 70 48 70ZM38 53H44V69H38V53Z" fill="#8D6C9F"/>
    <path d="M44 70H38C37.447 70 37 69.552 37 69V53C37 52.448 37.447 52 38 52H44C44.553 52 45 52.448 45 53V69C45 69.552 44.553 70 44 70ZM39 68H43V54H39V68ZM37 30C36.447 30 36 29.552 36 29V27C36 26.448 36.447 26 37 26C37.553 26 38 26.448 38 27V29C38 29.552 37.553 30 37 30ZM32 30C31.447 30 31 29.552 31 29V27C31 26.448 31.447 26 32 26C32.553 26 33 26.448 33 27V29C33 29.552 32.553 30 32 30ZM42 30C41.447 30 41 29.552 41 29V27C41 26.448 41.447 26 42 26C42.553 26 43 26.448 43 27V29C43 29.552 42.553 30 42 30ZM47 30C46.447 30 46 29.552 46 29V27C46 26.448 46.447 26 47 26C47.553 26 48 26.448 48 27V29C48 29.552 47.553 30 47 30ZM52 30C51.447 30 51 29.552 51 29V27C51 26.448 51.447 26 52 26C52.553 26 53 26.448 53 27V29C53 29.552 52.553 30 52 30ZM57 30C56.447 30 56 29.552 56 29V27C56 26.448 56.447 26 57 26C57.553 26 58 26.448 58 27V29C58 29.552 57.553 30 57 30ZM62 30C61.447 30 61 29.552 61 29V27C61 26.448 61.447 26 62 26C62.553 26 63 26.448 63 27V29C63 29.552 62.553 30 62 30ZM67 30C66.447 30 66 29.552 66 29V27C66 26.448 66.447 26 67 26C67.553 26 68 26.448 68 27V29C68 29.552 67.553 30 67 30ZM23 76C22.447 76 22 75.552 22 75V73C22 72.448 22.447 72 23 72C23.553 72 24 72.448 24 73V75C24 75.552 23.553 76 23 76ZM28 76C27.447 76 27 75.552 27 75V73C27 72.448 27.447 72 28 72C28.553 72 29 72.448 29 73V75C29 75.552 28.553 76 28 76ZM33 76C32.447 76 32 75.552 32 75V73C32 72.448 32.447 72 33 72C33.553 72 34 72.448 34 73V75C34 75.552 33.553 76 33 76ZM38 76C37.447 76 37 75.552 37 75V73C37 72.448 37.447 72 38 72C38.553 72 39 72.448 39 73V75C39 75.552 38.553 76 38 76ZM43 76C42.447 76 42 75.552 42 75V73C42 72.448 42.447 72 43 72C43.553 72 44 72.448 44 73V75C44 75.552 43.553 76 43 76Z" fill="#8D6C9F"/>
    <path d="M48 76C47.447 76 47 75.552 47 75V73C47 72.448 47.447 72 48 72C48.553 72 49 72.448 49 73V75C49 75.552 48.553 76 48 76Z" fill="#8D6C9F"/>
</svg>
