<svg width="204" height="294" viewBox="0 0 204 294" fill="none" xmlns="http://www.w3.org/2000/svg">
<path fill-rule="evenodd" clip-rule="evenodd" d="M187.014 294H0C0.863921 271.801 14.4925 262.316 35.2768 261.792C48.9964 224.596 79.0572 262.545 81.221 233.123C83.7635 198.523 84.4945 157.743 84.4945 157.743L102.217 158.037C102.217 158.037 103.697 179.869 106.768 224.348C108.946 255.854 131.13 226.635 160.27 245.728C174.979 255.367 174.323 278.684 174.323 278.684C174.323 278.684 187.014 279.32 187.014 294Z" fill="#B5B8BC"/>
<path fill-rule="evenodd" clip-rule="evenodd" d="M64.2566 294H18.3853C20.3806 284.156 28.8999 276.975 38.9345 275.99C40.8588 275.808 42.8364 275.845 44.8362 276.135C45.9872 276.306 47.1071 276.549 48.1914 276.868C51.1645 277.742 53.8576 279.157 56.1596 280.981C60.3148 284.258 63.2123 288.86 64.2566 294Z" fill="#D7DADD"/>
<path fill-rule="evenodd" clip-rule="evenodd" d="M166.207 294H141.382C142.4 289.47 145.64 285.801 149.902 284.407C150.906 284.079 151.968 283.874 153.075 283.819C153.71 283.785 154.341 283.802 154.954 283.866C160.363 284.416 164.882 288.515 166.207 294Z" fill="#D7DADD"/>
<path fill-rule="evenodd" clip-rule="evenodd" d="M125.846 294H54.9103C54.617 291.196 54.6837 288.315 55.1458 285.404C55.3858 283.891 55.728 282.413 56.1591 280.981C61.0653 264.761 77.8682 254.141 95.751 256.749C99.9773 257.367 103.915 258.671 107.461 260.529C119.758 266.956 127.344 280.013 125.846 294Z" fill="#D7DADD"/>
<path fill-rule="evenodd" clip-rule="evenodd" d="M69.5234 229.495C68.9416 233.162 65.3708 235.681 61.5481 235.123C57.7249 234.565 55.0976 231.141 55.6793 227.475C56.261 223.809 59.8314 221.29 63.6546 221.847C67.4773 222.405 70.1051 225.829 69.5234 229.495Z" fill="#D7DADD"/>
<path fill-rule="evenodd" clip-rule="evenodd" d="M120.359 230.768C120.119 232.281 118.645 233.321 117.068 233.091C115.49 232.86 114.405 231.448 114.646 229.934C114.886 228.421 116.359 227.382 117.937 227.612C119.515 227.842 120.599 229.255 120.359 230.768Z" fill="#D7DADD"/>
<path fill-rule="evenodd" clip-rule="evenodd" d="M203.485 276.841C202.93 280.332 199.53 282.731 195.889 282.2C192.248 281.669 189.745 278.408 190.3 274.916C190.854 271.425 194.254 269.025 197.895 269.557C201.536 270.088 204.039 273.349 203.485 276.841Z" fill="#D7DADD"/>
<path fill-rule="evenodd" clip-rule="evenodd" d="M72.8771 144.616H115.221C117.675 144.616 119.665 142.707 119.665 140.354C119.665 138 117.675 136.092 115.221 136.092H72.8771C70.4227 136.092 68.4331 138 68.4331 140.354C68.4331 142.707 70.4227 144.616 72.8771 144.616ZM82.2896 162.582H105.809L114.697 144.616H73.4015L82.2896 162.582Z" fill="#6CA1FF"/>
<path opacity="0.402158" fill-rule="evenodd" clip-rule="evenodd" d="M105.734 162.581H82.2147L73.3267 144.615H114.622L105.734 162.581Z" fill="black"/>
<path d="M56.7365 192.361C60.1854 194.193 62.7208 197.621 63.231 201.719C63.2874 202.171 63.3185 202.62 63.3261 203.065C63.3594 205.081 60.8192 205.964 59.5904 204.366C58.1883 202.543 56.3312 201.492 54.3891 201.664C50.6628 201.994 48.0364 206.707 48.5217 212.192C48.5226 212.204 48.5235 212.216 48.5248 212.227C48.6732 213.862 47.0049 215.043 45.5344 214.315C41.8094 212.471 39.1056 208.787 38.7123 204.342C38.2417 199.025 41.2197 194.198 45.7975 192.071V105.348C41.9239 103.264 39.2909 99.1725 39.2909 94.4659C39.2909 89.3478 42.4046 84.9568 46.8413 83.0841C48.448 79.9378 51.7243 77.7708 55.4821 77.7708H132.3C135.723 77.7708 138.746 79.5688 140.472 82.2671C146.125 81.3753 151.82 84.5263 153.931 90.0884C156.208 96.0907 153.5 102.761 147.855 105.541V193.052C151.937 195.446 154.443 200.091 153.871 205.093C153.364 209.527 150.567 213.14 146.796 214.888C145.307 215.579 143.67 214.355 143.86 212.725C143.861 212.713 143.862 212.701 143.864 212.69C144.49 207.219 141.985 202.44 138.269 202.014C136.331 201.793 134.448 202.797 132.999 204.583C131.73 206.149 129.213 205.201 129.298 203.187C129.317 202.742 129.36 202.294 129.428 201.843C130.086 197.47 133.047 193.925 136.916 192.309V111.872C135.541 112.623 133.968 113.05 132.3 113.05H56.7365V192.361Z" fill="#6CA1FF"/>
<path fill-rule="evenodd" clip-rule="evenodd" d="M95.1624 103.54C92.2294 103.54 89.8296 101.14 89.8296 98.207V91.3419C89.8296 88.4088 92.2294 86.009 95.1624 86.009H124.662C127.595 86.009 129.995 88.4088 129.995 91.3419V98.207C129.995 101.14 127.595 103.54 124.662 103.54H95.1624ZM94.0804 94.7744C94.0804 98.1332 96.8032 100.856 100.162 100.856C103.52 100.856 106.243 98.1332 106.243 94.7744C106.243 91.4156 103.52 88.6932 100.162 88.6932C96.8032 88.6932 94.0804 91.4156 94.0804 94.7744ZM110.77 94.7744C110.77 98.1332 113.493 100.856 116.852 100.856C120.21 100.856 122.933 98.1332 122.933 94.7744C122.933 91.4156 120.21 88.6932 116.852 88.6932C113.493 88.6932 110.77 91.4156 110.77 94.7744Z" fill="#19141E"/>
<path opacity="0.401228" fill-rule="evenodd" clip-rule="evenodd" d="M136.916 192.124V111.9C138.217 110.681 139.087 109.797 139.525 109.248C140.198 108.406 140.778 107.592 141.126 107.163C141.218 107.05 141.324 106.861 141.345 106.821C141.367 106.781 141.362 106.779 141.4 106.782C141.788 106.812 142.058 106.821 142.385 106.821C143.144 106.821 144.066 106.736 145.096 106.519C145.437 106.447 145.915 106.309 146.501 106.113C146.776 106.021 147.227 105.831 147.855 105.544V192.124H136.916ZM140.472 82.2671C146.124 81.3753 151.82 84.5263 153.93 90.0884C156.35 96.4647 153.142 103.595 146.766 106.015C144.985 106.69 143.145 106.927 141.366 106.779C141.771 105.713 141.993 104.559 141.993 103.356V87.465C141.993 85.5562 141.434 83.7717 140.472 82.2671ZM48.6706 106.455C48.759 106.475 48.8495 106.494 48.9423 106.511C49.2868 106.575 49.6869 106.659 50.1412 106.725C50.6323 106.784 51.1323 106.815 51.6394 106.815C58.4597 106.815 63.9881 101.286 63.9881 94.4659C63.9881 87.6461 58.4597 82.1173 51.6394 82.1173C49.9376 82.1173 48.3163 82.4615 46.8412 83.0841C48.4479 79.9378 51.7242 77.7708 55.482 77.7708H67.6458C72.9773 77.7708 77.3396 82.133 77.3396 87.465V103.356C77.3396 108.687 72.9773 113.05 67.6458 113.05H56.7364V192.124H45.7974V105.353C45.8736 105.393 45.9484 105.432 46.0217 105.469L46.0209 105.465C46.8538 105.892 47.7415 106.226 48.6706 106.455Z" fill="black"/>
<path d="M147.855 180.929H148.966V179.818H147.855V180.929ZM136.916 180.929V179.818H135.805V180.929H136.916ZM147.855 183.151V184.262H148.966V183.151H147.855ZM136.916 183.151H135.805V184.262H136.916V183.151ZM147.855 171.596H148.966V170.485H147.855V171.596ZM136.916 171.596V170.485H135.805V171.596H136.916ZM147.855 173.818V174.929H148.966V173.818H147.855ZM136.916 173.818H135.805V174.929H136.916V173.818ZM147.855 162.264H148.966V161.153H147.855V162.264ZM136.916 162.264V161.153H135.805V162.264H136.916ZM147.855 164.486V165.597H148.966V164.486H147.855ZM136.916 164.486H135.805V165.597H136.916V164.486ZM147.855 152.931H148.966V151.82H147.855V152.931ZM136.916 152.931V151.82H135.805V152.931H136.916ZM147.855 155.153V156.264H148.966V155.153H147.855ZM136.916 155.153H135.805V156.264H136.916V155.153ZM147.855 143.599H148.966V142.488H147.855V143.599ZM136.916 143.599V142.488H135.805V143.599H136.916ZM147.855 145.821V146.932H148.966V145.821H147.855ZM136.916 145.821H135.805V146.932H136.916V145.821ZM147.855 134.266H148.966V133.155H147.855V134.266ZM136.916 134.266V133.155H135.805V134.266H136.916ZM147.855 136.488V137.599H148.966V136.488H147.855ZM136.916 136.488H135.805V137.599H136.916V136.488ZM147.855 124.934H148.966V123.823H147.855V124.934ZM136.916 124.934V123.823H135.805V124.934H136.916ZM147.855 127.156V128.267H148.966V127.156H147.855ZM136.916 127.156H135.805V128.267H136.916V127.156ZM147.855 115.601H148.966V114.49H147.855V115.601ZM136.916 115.601V114.49H135.805V115.601H136.916ZM147.855 117.823V118.934H148.966V117.823H147.855ZM136.916 117.823H135.805V118.934H136.916V117.823ZM56.7364 180.929H57.8474V179.818H56.7364V180.929ZM45.7974 180.929V179.818H44.6864V180.929H45.7974ZM56.7364 183.151V184.262H57.8474V183.151H56.7364ZM45.7974 183.151H44.6864V184.262H45.7974V183.151ZM56.7364 171.596H57.8474V170.485H56.7364V171.596ZM45.7974 171.596V170.485H44.6864V171.596H45.7974ZM56.7364 173.818V174.929H57.8474V173.818H56.7364ZM45.7974 173.818H44.6864V174.929H45.7974V173.818ZM56.7364 162.264H57.8474V161.153H56.7364V162.264ZM45.7974 162.264V161.153H44.6864V162.264H45.7974ZM56.7364 164.486V165.597H57.8474V164.486H56.7364ZM45.7974 164.486H44.6864V165.597H45.7974V164.486ZM56.7364 152.931H57.8474V151.82H56.7364V152.931ZM45.7974 152.931V151.82H44.6864V152.931H45.7974ZM56.7364 155.153V156.264H57.8474V155.153H56.7364ZM45.7974 155.153H44.6864V156.264H45.7974V155.153ZM56.7364 143.599H57.8474V142.488H56.7364V143.599ZM45.7974 143.599V142.488H44.6864V143.599H45.7974ZM56.7364 145.821V146.932H57.8474V145.821H56.7364ZM45.7974 145.821H44.6864V146.932H45.7974V145.821ZM56.7364 134.266H57.8474V133.155H56.7364V134.266ZM45.7974 134.266V133.155H44.6864V134.266H45.7974ZM56.7364 136.488V137.599H57.8474V136.488H56.7364ZM45.7974 136.488H44.6864V137.599H45.7974V136.488ZM56.7364 124.934H57.8474V123.823H56.7364V124.934ZM45.7974 124.934V123.823H44.6864V124.934H45.7974ZM56.7364 127.156V128.267H57.8474V127.156H56.7364ZM45.7974 127.156H44.6864V128.267H45.7974V127.156ZM56.7364 115.601H57.8474V114.49H56.7364V115.601ZM45.7974 115.601V114.49H44.6864V115.601H45.7974ZM56.7364 117.823V118.934H57.8474V117.823H56.7364ZM45.7974 117.823H44.6864V118.934H45.7974V117.823ZM147.855 179.818H136.916V182.04H147.855V179.818ZM148.966 183.151V180.929H146.744V183.151H148.966ZM136.916 184.262H147.855V182.04H136.916V184.262ZM135.805 180.929V183.151H138.027V180.929H135.805ZM147.855 170.485H136.916V172.707H147.855V170.485ZM148.966 173.818V171.596H146.744V173.818H148.966ZM136.916 174.929H147.855V172.707H136.916V174.929ZM135.805 171.596V173.818H138.027V171.596H135.805ZM147.855 161.153H136.916V163.375H147.855V161.153ZM148.966 164.486V162.264H146.744V164.486H148.966ZM136.916 165.597H147.855V163.375H136.916V165.597ZM135.805 162.264V164.486H138.027V162.264H135.805ZM147.855 151.82H136.916V154.042H147.855V151.82ZM148.966 155.153V152.931H146.744V155.153H148.966ZM136.916 156.264H147.855V154.042H136.916V156.264ZM135.805 152.931V155.153H138.027V152.931H135.805ZM147.855 142.488H136.916V144.71H147.855V142.488ZM148.966 145.821V143.599H146.744V145.821H148.966ZM136.916 146.932H147.855V144.71H136.916V146.932ZM135.805 143.599V145.821H138.027V143.599H135.805ZM147.855 133.155H136.916V135.377H147.855V133.155ZM148.966 136.488V134.266H146.744V136.488H148.966ZM136.916 137.599H147.855V135.377H136.916V137.599ZM135.805 134.266V136.488H138.027V134.266H135.805ZM147.855 123.823H136.916V126.045H147.855V123.823ZM148.966 127.156V124.934H146.744V127.156H148.966ZM136.916 128.267H147.855V126.045H136.916V128.267ZM135.805 124.934V127.156H138.027V124.934H135.805ZM147.855 114.49H136.916V116.712H147.855V114.49ZM148.966 117.823V115.601H146.744V117.823H148.966ZM136.916 118.934H147.855V116.712H136.916V118.934ZM135.805 115.601V117.823H138.027V115.601H135.805ZM56.7364 179.818H45.7974V182.04H56.7364V179.818ZM57.8474 183.151V180.929H55.6254V183.151H57.8474ZM45.7974 184.262H56.7364V182.04H45.7974V184.262ZM44.6864 180.929V183.151H46.9084V180.929H44.6864ZM56.7364 170.485H45.7974V172.707H56.7364V170.485ZM57.8474 173.818V171.596H55.6254V173.818H57.8474ZM45.7974 174.929H56.7364V172.707H45.7974V174.929ZM44.6864 171.596V173.818H46.9084V171.596H44.6864ZM56.7364 161.153H45.7974V163.375H56.7364V161.153ZM57.8474 164.486V162.264H55.6254V164.486H57.8474ZM45.7974 165.597H56.7364V163.375H45.7974V165.597ZM44.6864 162.264V164.486H46.9084V162.264H44.6864ZM56.7364 151.82H45.7974V154.042H56.7364V151.82ZM57.8474 155.153V152.931H55.6254V155.153H57.8474ZM45.7974 156.264H56.7364V154.042H45.7974V156.264ZM44.6864 152.931V155.153H46.9084V152.931H44.6864ZM56.7364 142.488H45.7974V144.71H56.7364V142.488ZM57.8474 145.821V143.599H55.6254V145.821H57.8474ZM45.7974 146.932H56.7364V144.71H45.7974V146.932ZM44.6864 143.599V145.821H46.9084V143.599H44.6864ZM56.7364 133.155H45.7974V135.377H56.7364V133.155ZM57.8474 136.488V134.266H55.6254V136.488H57.8474ZM45.7974 137.599H56.7364V135.377H45.7974V137.599ZM44.6864 134.266V136.488H46.9084V134.266H44.6864ZM56.7364 123.823H45.7974V126.045H56.7364V123.823ZM57.8474 127.156V124.934H55.6254V127.156H57.8474ZM45.7974 128.267H56.7364V126.045H45.7974V128.267ZM44.6864 124.934V127.156H46.9084V124.934H44.6864ZM56.7364 114.49H45.7974V116.712H56.7364V114.49ZM57.8474 117.823V115.601H55.6254V117.823H57.8474ZM45.7974 118.934H56.7364V116.712H45.7974V118.934ZM44.6864 115.601V117.823H46.9084V115.601H44.6864Z" fill="#19141E"/>
<path fill-rule="evenodd" clip-rule="evenodd" d="M85.77 136.062H101.222V111.545H85.77V136.062Z" fill="#19141E"/>
<path fill-rule="evenodd" clip-rule="evenodd" d="M117.704 54.3542H123.638C125.997 54.3542 127.927 52.4237 127.927 50.064C127.927 47.7046 125.997 45.7737 123.638 45.7737H117.704C115.345 45.7737 113.414 47.7046 113.414 50.064C113.414 52.4237 115.345 54.3542 117.704 54.3542Z" fill="#19141E"/>
<path d="M94.5056 62.4629C95.4012 60.0384 98.7986 58.6072 102.094 59.2661C105.389 59.925 107.335 62.4246 106.439 64.849L101.921 77.0799C101.025 79.5044 100.724 80.1993 96.6578 80.1993C94.9364 80.1993 92.3114 80.1993 90.8266 80.1993C88.7024 80.1993 88.0502 78.8267 89.9876 74.6938L94.5056 62.4629Z" fill="#19141E"/>
<path fill-rule="evenodd" clip-rule="evenodd" d="M115.86 11.9993C113.311 11.9993 111.245 14.0653 111.245 16.614C111.245 19.1626 113.311 21.2291 115.86 21.2291C118.409 21.2291 120.476 19.1626 120.476 16.614C120.476 14.0653 118.409 11.9993 115.86 11.9993ZM81.0942 55.5165C81.0942 65.6881 89.4166 74.0104 99.5881 74.0104H101.366C111.538 74.0104 119.86 65.6881 119.86 55.5165V45.5344C119.86 35.3628 111.538 27.0405 101.366 27.0405H99.5881C89.4166 27.0405 81.0942 35.3628 81.0942 45.5344V55.5165Z" fill="#6CA1FF"/>
<path d="M114.006 20.8414C110.98 23.4762 109.258 26.3898 108.738 30.3583C108.643 31.0884 107.973 31.6028 107.243 31.5072C106.513 31.4116 105.999 30.7423 106.094 30.0122C106.693 25.4419 108.654 22.0563 111.963 19.0872C112.452 19.8565 113.163 20.4712 114.006 20.8414Z" fill="#19141E"/>
<path fill-rule="evenodd" clip-rule="evenodd" d="M106.532 46.8314C106.765 48.1495 105.885 49.4063 104.567 49.6392C103.25 49.872 101.992 48.9926 101.76 47.6745C101.527 46.3568 102.406 45.0996 103.724 44.8667C105.042 44.6339 106.3 45.5133 106.532 46.8314Z" fill="#19141E"/>
<path fill-rule="evenodd" clip-rule="evenodd" d="M119.113 46.8832C119.346 48.2013 118.466 49.458 117.148 49.6909C115.83 49.9238 114.573 49.0443 114.341 47.7262C114.108 46.4086 114.987 45.1513 116.305 44.9185C117.623 44.6856 118.88 45.5655 119.113 46.8832Z" fill="#19141E"/>
<path opacity="0.403971" fill-rule="evenodd" clip-rule="evenodd" d="M109.377 44.2148L115.492 53.918L108.91 54.0771L109.377 44.2148Z" fill="black"/>
<path fill-rule="evenodd" clip-rule="evenodd" d="M78.5056 53.436H84.262V44.8555H78.5056C76.1458 44.8555 74.2153 46.7864 74.2153 49.1457C74.2153 51.5055 76.1458 53.436 78.5056 53.436Z" fill="#19141E"/>
<path d="M108.133 58.6038C105.221 59.0971 102.499 57.4341 102.204 55.6912" stroke="#19141E" stroke-width="1.77762"/>
</svg>
