<svg width="176" height="269" viewBox="0 0 176 269" fill="none" xmlns="http://www.w3.org/2000/svg">
<path fill-rule="evenodd" clip-rule="evenodd" d="M175.352 269H0C0.81005 248.185 13.5887 239.292 33.077 238.8C45.9411 203.924 74.1275 239.506 76.1563 211.919C78.5402 179.476 79.2257 141.24 79.2257 141.24L95.8434 141.515C95.8434 141.515 97.2309 161.986 100.11 203.692C102.152 233.233 122.953 205.836 150.276 223.739C164.068 232.776 163.453 254.639 163.453 254.639C163.453 254.639 175.352 255.235 175.352 269Z" fill="#B5B8BC"/>
<path fill-rule="evenodd" clip-rule="evenodd" d="M60.2495 269H17.2385C19.1095 259.77 27.0975 253.036 36.5064 252.113C38.3106 251.942 40.1649 251.978 42.04 252.249C43.1193 252.409 44.1693 252.637 45.1861 252.937C47.9737 253.756 50.4989 255.082 52.6574 256.793C56.5534 259.866 59.2703 264.181 60.2495 269Z" fill="#D7DADD"/>
<path fill-rule="evenodd" clip-rule="evenodd" d="M155.843 269H132.566C133.521 264.752 136.558 261.312 140.554 260.005C141.496 259.698 142.492 259.506 143.529 259.454C144.125 259.422 144.717 259.438 145.292 259.498C150.363 260.013 154.601 263.857 155.843 269Z" fill="#D7DADD"/>
<path fill-rule="evenodd" clip-rule="evenodd" d="M117.999 269H51.4864C51.2114 266.371 51.2739 263.669 51.7073 260.94C51.9323 259.522 52.2531 258.136 52.6573 256.793C57.2576 241.585 73.0127 231.626 89.7804 234.072C93.7432 234.651 97.4351 235.874 100.76 237.616C112.29 243.642 119.403 255.885 117.999 269Z" fill="#D7DADD"/>
<path fill-rule="evenodd" clip-rule="evenodd" d="M65.188 208.518C64.6426 211.955 61.2944 214.318 57.7101 213.795C54.1253 213.272 51.6618 210.061 52.2072 206.624C52.7527 203.186 56.1004 200.824 59.6852 201.347C63.2696 201.87 65.7335 205.08 65.188 208.518Z" fill="#D7DADD"/>
<path fill-rule="evenodd" clip-rule="evenodd" d="M112.854 209.711C112.629 211.13 111.247 212.105 109.768 211.889C108.288 211.673 107.271 210.348 107.497 208.929C107.722 207.511 109.104 206.536 110.583 206.752C112.062 206.968 113.079 208.292 112.854 209.711Z" fill="#D7DADD"/>
<path fill-rule="evenodd" clip-rule="evenodd" d="M68.3327 128.931H108.036C110.337 128.931 112.203 127.141 112.203 124.935C112.203 122.728 110.337 120.939 108.036 120.939H68.3327C66.0313 120.939 64.1658 122.728 64.1658 124.935C64.1658 127.141 66.0313 128.931 68.3327 128.931ZM77.1582 145.777H99.2108L107.545 128.931H68.8243L77.1582 145.777Z" fill="#6CA1FF"/>
<path opacity="0.402158" fill-rule="evenodd" clip-rule="evenodd" d="M99.1406 145.776H77.088L68.7542 128.931H107.474L99.1406 145.776Z" fill="black"/>
<path d="M38.7849 228.088L30.0035 218.565L42.7347 202.204L58.0194 215.464L52.507 227.106" stroke="#19141E" stroke-width="6.25038"/>
<path d="M134.148 227.303L126.276 217.016L140.453 201.89L154.458 216.495L147.903 227.583" stroke="#19141E" stroke-width="6.25038"/>
<path d="M140.61 158.637L134.299 112.369" stroke="#19141E" stroke-width="11.2507" stroke-linecap="round"/>
<path d="M39.819 157.228L46.4719 111.008" stroke="#19141E" stroke-width="11.2507" stroke-linecap="round"/>
<path fill-rule="evenodd" clip-rule="evenodd" d="M114.177 131.434H96.2101C93.5328 131.434 91.3627 129.264 91.3627 126.586V108.62C91.3627 105.943 93.5328 103.773 96.2101 103.773H114.177C116.853 103.773 119.024 105.943 119.024 108.62V126.586C119.024 129.264 116.853 131.434 114.177 131.434Z" fill="#19141E"/>
<path fill-rule="evenodd" clip-rule="evenodd" d="M109.593 131.434H96.2101C93.5328 131.434 91.3627 129.264 91.3627 126.586V108.62C91.3627 105.943 93.5328 103.773 96.2101 103.773H109.593C112.27 103.773 114.44 105.943 114.44 108.62V126.586C114.44 129.264 112.27 131.434 109.593 131.434Z" fill="#405FD3"/>
<path fill-rule="evenodd" clip-rule="evenodd" d="M47.2054 125.789C47.0792 125.793 46.9526 125.794 46.8257 125.794C38.4743 125.794 31.7043 119.024 31.7043 110.672C31.7043 102.321 38.4743 95.5506 46.8257 95.5506C48.6095 95.5506 50.3212 95.8594 51.9101 96.4266C59.3614 83.0192 73.6688 73.9467 90.0951 73.9467C105.765 73.9467 119.506 82.2018 127.207 94.6C128.734 94.081 130.371 93.7995 132.074 93.7995C140.426 93.7995 147.196 100.57 147.196 108.921C147.196 116.864 141.072 123.377 133.287 123.995C130.195 145.076 112.035 161.26 90.0951 161.26C68.7824 161.26 51.0369 145.987 47.2054 125.789ZM20.8659 167.545C20.4072 161.4 25.0175 156.047 31.1628 155.588L46.6017 154.436C52.7471 153.977 58.1003 158.588 58.5587 164.733L61.1847 199.925C61.643 206.07 57.0332 211.423 50.8882 211.882L35.4489 213.034C29.3035 213.493 23.9503 208.882 23.4919 202.737L20.8659 167.545ZM132.772 153.68C126.61 153.647 121.588 158.616 121.555 164.778L121.367 200.067C121.334 206.23 126.303 211.252 132.466 211.285L147.947 211.367C154.109 211.4 159.132 206.431 159.164 200.269L159.352 164.979C159.385 158.817 154.416 153.795 148.254 153.762L132.772 153.68Z" fill="#6CA1FF"/>
<path fill-rule="evenodd" clip-rule="evenodd" d="M73.4253 77.2802H106.766V66.2542H73.4253V77.2802Z" fill="#19141E"/>
<path fill-rule="evenodd" clip-rule="evenodd" d="M109.593 131.434C112.27 131.434 114.44 129.264 114.44 126.586V108.62C114.44 105.943 112.27 103.773 109.593 103.773H114.177C116.853 103.773 119.023 105.943 119.023 108.62V126.586C119.023 129.264 116.853 131.434 114.177 131.434H109.593Z" fill="#19141E"/>
<path opacity="0.401762" d="M29.3709 166.7L27.5016 166.847L29.3709 166.7ZM27.3544 164.978L27.5016 166.847H27.5016L27.3544 164.978ZM32.1427 201.902L34.012 201.755L32.1427 201.902ZM30.4206 203.919L30.5678 205.788H30.5678L30.4206 203.919ZM28.4041 202.197L30.2734 202.049L28.4041 202.197ZM25.6322 166.994L27.5016 166.847L25.6322 166.994ZM36.2414 166.113L34.3721 166.26V166.26L36.2414 166.113ZM34.2249 164.391L34.3721 166.26L34.2249 164.391ZM39.0132 201.315L40.8826 201.168V201.168L39.0132 201.315ZM37.2911 203.332L37.4383 205.201H37.4383L37.2911 203.332ZM35.2746 201.61L37.1439 201.462L35.2746 201.61ZM32.5027 166.407L34.3721 166.26V166.26L32.5027 166.407ZM31.2402 166.553C31.0776 164.488 29.272 162.946 27.2072 163.109L27.5016 166.847H27.5016L31.2402 166.553ZM34.012 201.755L31.2402 166.553L27.5016 166.847L30.2734 202.049L34.012 201.755ZM30.5678 205.788C32.6326 205.625 34.1746 203.82 34.012 201.755L30.2734 202.049L30.2734 202.049L30.5678 205.788ZM26.5347 202.344C26.6973 204.409 28.503 205.951 30.5678 205.788L30.2734 202.049H30.2734L26.5347 202.344ZM23.7629 167.142L26.5347 202.344L30.2734 202.049L27.5016 166.847L23.7629 167.142ZM27.2072 163.109C25.1424 163.271 23.6003 165.077 23.7629 167.142L27.5016 166.847H27.5016L27.2072 163.109ZM38.1107 165.966C37.9481 163.901 36.1425 162.359 34.0777 162.522L34.3721 166.26V166.26L38.1107 165.966ZM40.8826 201.168L38.1107 165.966L34.3721 166.26L37.1439 201.462L40.8826 201.168ZM37.4383 205.201C39.5031 205.038 41.0452 203.233 40.8826 201.168L37.1439 201.462L37.1439 201.462L37.4383 205.201ZM33.4053 201.757C33.5678 203.822 35.3735 205.364 37.4383 205.201L37.1439 201.462L37.1439 201.462L33.4053 201.757ZM30.6334 166.555L33.4053 201.757L37.1439 201.462L34.3721 166.26L30.6334 166.555ZM34.0777 162.522C32.0129 162.684 30.4708 164.49 30.6334 166.555L34.3721 166.26V166.26L34.0777 162.522Z" fill="black"/>
<path opacity="0.397763" fill-rule="evenodd" clip-rule="evenodd" d="M109.611 131.417H96.228C93.5507 131.417 91.3806 129.247 91.3806 126.57V108.603C91.3806 105.926 93.5507 103.756 96.228 103.756H109.611C112.288 103.756 114.458 105.926 114.458 108.603V126.57C114.458 129.247 112.288 131.417 109.611 131.417ZM98.5172 116.197C100.456 116.197 102.029 114.625 102.029 112.685C102.029 110.746 100.456 109.173 98.5172 109.173C96.5779 109.173 95.0057 110.746 95.0057 112.685C95.0057 114.625 96.5779 116.197 98.5172 116.197ZM108.497 116.197C110.436 116.197 112.009 114.625 112.009 112.685C112.009 110.746 110.436 109.173 108.497 109.173C106.557 109.173 104.985 110.746 104.985 112.685C104.985 114.625 106.557 116.197 108.497 116.197ZM98.5172 126.346C100.456 126.346 102.029 124.774 102.029 122.835C102.029 120.895 100.456 119.323 98.5172 119.323C96.5779 119.323 95.0057 120.895 95.0057 122.835C95.0057 124.774 96.5779 126.346 98.5172 126.346Z" fill="black"/>
<path opacity="0.404204" fill-rule="evenodd" clip-rule="evenodd" d="M31.2518 110.544C31.2518 118.896 38.0218 125.666 46.3732 125.666C54.7245 125.666 61.4949 118.896 61.4949 110.544C61.4949 102.193 54.7245 95.4225 46.3732 95.4225C38.0218 95.4225 31.2518 102.193 31.2518 110.544Z" fill="black"/>
<path opacity="0.398763" fill-rule="evenodd" clip-rule="evenodd" d="M121.862 164.858L121.674 200.147C121.641 206.309 126.61 211.331 132.772 211.364L148.254 211.447C154.416 211.48 159.439 206.511 159.471 200.348L159.659 165.059C159.692 158.897 154.723 153.875 148.561 153.842L133.079 153.76C126.917 153.727 121.895 158.695 121.862 164.858Z" fill="black"/>
<path opacity="0.397856" fill-rule="evenodd" clip-rule="evenodd" d="M127.091 94.7646C128.618 94.2456 130.256 93.9641 131.958 93.9641C140.31 93.9641 147.08 100.735 147.08 109.086C147.08 117.029 140.956 123.541 133.172 124.159C133.478 122.073 133.636 119.939 133.636 117.768C133.636 109.326 131.24 101.444 127.091 94.7646H127.091Z" fill="black"/>
<path opacity="0.598121" fill-rule="evenodd" clip-rule="evenodd" d="M98.5172 126.343C100.456 126.343 102.029 124.771 102.029 122.831C102.029 120.892 100.456 119.32 98.5172 119.32C96.5779 119.32 95.0057 120.892 95.0057 122.831C95.0057 124.771 96.5779 126.343 98.5172 126.343Z" fill="black"/>
<path d="M117.078 40.4726V11.3683" stroke="#19141E" stroke-width="2.91685"/>
<path fill-rule="evenodd" clip-rule="evenodd" d="M119.697 52.8258H107.663V34.8884H119.697C124.63 34.8884 128.666 38.9241 128.666 43.8569C128.666 48.7897 124.63 52.8258 119.697 52.8258Z" fill="#19141E"/>
<path fill-rule="evenodd" clip-rule="evenodd" d="M110.626 5.65777C111.042 2.46529 113.772 0 117.078 0C120.672 0 123.585 2.91351 123.585 6.50748C123.585 10.1015 120.672 13.015 117.078 13.015C114.45 13.015 112.185 11.4565 111.158 9.21311L106.62 5.74096L100.445 10.4656L94.2743 5.74127L88.1018 10.4657L81.931 5.74129L75.759 10.4657L72.3522 7.85773C71.7306 10.8037 69.1164 13.015 65.9854 13.015C62.3914 13.015 59.4779 10.1015 59.4779 6.50748C59.4779 2.91351 62.3914 0 65.9854 0C68.9152 0 71.3925 1.93618 72.2081 4.59879L75.7591 7.31713L81.9312 2.59264L88.102 7.31711L94.2745 2.59266L100.445 7.31723L106.62 2.59297L110.626 5.65777ZM114.728 66.0806H67.8873C64.1579 66.0806 61.1348 63.0575 61.1348 59.3281V28.3862C61.1348 24.6568 64.1579 21.6333 67.8873 21.6333H114.728C118.457 21.6333 121.48 24.6568 121.48 28.3862V59.3281C121.48 63.0575 118.457 66.0806 114.728 66.0806ZM72.2528 72.2053H110.362C112.053 72.2053 113.424 70.8343 113.424 69.143C113.424 67.4516 112.053 66.0807 110.362 66.0807H72.2528C70.5619 66.0807 69.1905 67.4516 69.1905 69.143C69.1905 70.8343 70.5619 72.2053 72.2528 72.2053Z" fill="#6CA1FF"/>
<path opacity="0.404367" d="M81.9311 5.7413L75.7591 10.4657L72.3525 7.88277L72.192 4.58759L75.7592 7.31715L81.9313 2.59265L88.1021 7.31713L94.2746 2.59267L100.446 7.31724L106.62 2.59298L110.571 5.74097L111.228 9.23443L106.62 5.74097L100.445 10.4656L94.2744 5.74128L88.1019 10.4657L81.9311 5.7413Z" fill="black"/>
<path opacity="0.395624" fill-rule="evenodd" clip-rule="evenodd" d="M110.362 72.2052H72.2528C70.5619 72.2052 69.1906 70.8343 69.1906 69.143C69.1906 67.4516 70.5619 66.0807 72.2528 66.0807H110.362C112.053 66.0807 113.424 67.4516 113.424 69.143C113.424 70.8343 112.053 72.2052 110.362 72.2052Z" fill="black"/>
<path fill-rule="evenodd" clip-rule="evenodd" d="M58.9718 52.8258H71.0055V34.8884H58.9718C54.039 34.8884 50.0029 38.9241 50.0029 43.8569C50.0029 48.7897 54.039 52.8258 58.9718 52.8258Z" fill="#19141E"/>
<path fill-rule="evenodd" clip-rule="evenodd" d="M117.078 43.857C117.078 50.7157 112.636 56.2761 107.157 56.2761C101.678 56.2761 97.2367 50.7157 97.2367 43.857C97.2367 36.9982 101.678 31.4379 107.157 31.4379C112.636 31.4379 117.078 36.9982 117.078 43.857Z" fill="#19141E"/>
<path fill-rule="evenodd" clip-rule="evenodd" d="M102.495 56.2761H107.157V31.4379H102.495V56.2761Z" fill="#19141E"/>
<path fill-rule="evenodd" clip-rule="evenodd" d="M112.416 43.857C112.416 50.7157 107.975 56.2761 102.495 56.2761C97.016 56.2761 92.5745 50.7157 92.5745 43.857C92.5745 36.9982 97.016 31.4379 102.495 31.4379C107.975 31.4379 112.416 36.9982 112.416 43.857Z" fill="white"/>
<path fill-rule="evenodd" clip-rule="evenodd" d="M107.574 43.0235C107.574 45.4379 106.011 47.3955 104.082 47.3955C102.153 47.3955 100.59 45.4379 100.59 43.0235C100.59 40.6092 102.153 38.6516 104.082 38.6516C106.011 38.6516 107.574 40.6092 107.574 43.0235Z" fill="#19141E"/>
<path d="M65.9852 40.4726V12.7092" stroke="#19141E" stroke-width="2.91685"/>
</svg>
