<svg width="163" height="314" viewBox="0 0 163 314" fill="none" xmlns="http://www.w3.org/2000/svg">
<path d="M85.9932 141.469L92.2919 211.364" stroke="#19141E" stroke-width="5.59572" stroke-linecap="round"/>
<path d="M92.292 217.677L89.6729 298.026" stroke="#19141E" stroke-width="5.59572" stroke-linecap="round"/>
<path d="M60.9588 140.96L60.6113 210.677" stroke="#19141E" stroke-width="5.59572" stroke-linecap="round"/>
<path d="M60.6113 213.66L51.2656 300.286" stroke="#19141E" stroke-width="5.59572" stroke-linecap="round"/>
<path fill-rule="evenodd" clip-rule="evenodd" d="M57.7781 138.532C57.7781 141.247 59.9841 143.467 62.6808 143.467H84.7707C87.467 143.467 89.6733 141.247 89.6733 138.532C89.6733 135.819 87.467 133.598 84.7707 133.598H62.6808C59.9841 133.598 57.7781 135.819 57.7781 138.532ZM62.3054 203.455L62.3526 203.455C66.0482 203.455 69.0437 207.309 69.0437 212.064C69.0437 216.818 66.0484 220.672 62.353 220.672L58.6734 220.672V220.669C55.0625 220.545 52.1651 216.74 52.1651 212.064C52.1651 207.387 55.0625 203.582 58.6734 203.458V203.455H58.8086L58.8558 203.455L58.903 203.455H62.3054ZM93.635 203.455L93.6822 203.455C97.3775 203.455 100.373 207.309 100.373 212.064C100.373 216.818 97.3776 220.672 93.6824 220.672L90.0028 220.672V220.669C86.392 220.544 83.4945 216.739 83.4945 212.064C83.4945 207.388 86.392 203.582 90.0028 203.458V203.455H90.1383L90.1855 203.455L90.2327 203.455H93.635ZM71.8811 306.572H44.1377L48.5209 295.273L71.8811 306.572ZM84.2634 306.572H112.007L88.6466 295.273L84.2634 306.572Z" fill="#6CA1FF"/>
<path opacity="0.403041" fill-rule="evenodd" clip-rule="evenodd" d="M89.9099 220.619C86.2992 220.494 83.4016 216.689 83.4016 212.013C83.4016 207.337 86.2992 203.532 89.9099 203.407V203.405H90.0455C90.0612 203.404 90.0769 203.404 90.0927 203.404C90.1084 203.404 90.1242 203.404 90.1399 203.405H93.5422C93.5579 203.404 93.5736 203.404 93.5894 203.404C97.2846 203.404 100.28 207.259 100.28 212.013C100.28 216.768 97.2847 220.622 93.5895 220.622L89.9099 220.622V220.619ZM85.7049 212.013C85.7049 214.796 87.2028 217.053 89.0502 217.053C90.898 217.053 92.3956 214.796 92.3956 212.013C92.3956 209.23 90.898 206.973 89.0502 206.973C87.2028 206.973 85.7049 209.23 85.7049 212.013ZM58.6392 220.655C55.0282 220.53 52.1309 216.725 52.1309 212.049C52.1309 207.373 55.0282 203.568 58.6392 203.443V203.44H58.7744C58.7901 203.44 58.8058 203.44 58.8216 203.44C58.8373 203.44 58.8531 203.44 58.8688 203.44H62.2712C62.2869 203.44 62.3027 203.44 62.3184 203.44C66.014 203.44 69.0095 207.294 69.0095 212.049C69.0095 216.804 66.0142 220.658 62.3188 220.658L58.6392 220.658V220.655ZM54.4332 212.048C54.4332 214.832 55.9311 217.088 57.7785 217.088C59.6263 217.088 61.1239 214.832 61.1239 212.048C61.1239 209.265 59.6263 207.008 57.7785 207.008C55.9311 207.008 54.4332 209.265 54.4332 212.048Z" fill="black"/>
<path opacity="0.602888" fill-rule="evenodd" clip-rule="evenodd" d="M54.4395 212.081C54.4395 214.865 55.9374 217.121 57.7848 217.121C59.6326 217.121 61.1302 214.865 61.1302 212.081C61.1302 209.298 59.6326 207.042 57.7848 207.042C55.9374 207.042 54.4395 209.298 54.4395 212.081Z" fill="black"/>
<path opacity="0.603864" fill-rule="evenodd" clip-rule="evenodd" d="M85.7285 212.012C85.7285 214.795 87.2264 217.051 89.0739 217.051C90.9217 217.051 92.4192 214.795 92.4192 212.012C92.4192 209.228 90.9217 206.972 89.0739 206.972C87.2264 206.972 85.7285 209.228 85.7285 212.012Z" fill="black"/>
<path opacity="0.39588" fill-rule="evenodd" clip-rule="evenodd" d="M71.8811 306.648H44.1377L48.5209 295.349L71.8811 306.648Z" fill="black"/>
<path opacity="0.39588" fill-rule="evenodd" clip-rule="evenodd" d="M112.007 306.648H84.2637L88.6469 295.349L112.007 306.648Z" fill="black"/>
<path d="M125.133 134.115L116.995 74.4474" stroke="#19141E" stroke-width="9.44277" stroke-linecap="round"/>
<path fill-rule="evenodd" clip-rule="evenodd" d="M49.3531 126.751H100.103L107.842 118.42H41.6143L49.3531 126.751Z" fill="#19141E"/>
<path d="M19.1719 132.131L27.7512 72.5255" stroke="#19141E" stroke-width="9.44277" stroke-linecap="round"/>
<path fill-rule="evenodd" clip-rule="evenodd" d="M121.225 106.485V89.6613C121.625 89.5839 122.026 89.4882 122.426 89.3739C129.824 87.2584 134.107 79.5457 131.991 72.1468C129.876 64.7482 122.163 60.4654 114.765 62.5813C114.458 62.6689 114.157 62.7662 113.861 62.8727C111.915 61.8293 109.695 61.2366 107.343 61.2366H42.1134C39.9951 61.2366 37.9837 61.7175 36.1829 62.5754C34.057 61.2617 31.5514 60.5035 28.8687 60.5035C21.1736 60.5035 14.9354 66.7417 14.9354 74.4369C14.9354 81.9186 20.8323 88.023 28.2319 88.3559V106.485C28.2319 114.119 34.4784 120.366 42.1134 120.366H107.343C114.978 120.366 121.225 114.119 121.225 106.485ZM138.562 210.438C138.691 207.174 137.606 204.144 135.71 201.783C141.316 198.636 145.116 192.621 145.093 185.77L144.967 148.033C144.933 137.981 136.682 129.785 126.63 129.819C116.579 129.853 108.383 138.104 108.417 148.155L108.543 185.893C108.564 192.029 111.647 197.473 116.332 200.776C114.215 202.906 112.817 205.761 112.579 208.937C112.543 209.417 112.533 209.892 112.548 210.361C112.617 212.488 115.34 213.288 116.554 211.54C117.937 209.547 119.841 208.342 121.897 208.423C125.843 208.579 128.855 213.412 128.626 219.22L128.625 219.238L128.624 219.257C128.552 220.988 130.371 222.147 131.884 221.303C135.716 219.167 138.377 215.144 138.562 210.438ZM15.5755 202.18C9.1988 199.706 4.44706 193.734 3.90674 186.491L1.09874 148.858C0.35066 138.835 7.9402 130.022 17.9635 129.274C27.9869 128.526 36.7998 136.115 37.5478 146.139L40.3555 183.772C40.8252 190.065 38.0086 195.881 33.3663 199.523C36.5776 201.803 38.7313 205.497 38.8794 209.664C38.8965 210.145 38.8874 210.62 38.8538 211.088C38.7014 213.211 35.949 213.903 34.8053 212.108C33.5012 210.062 31.6459 208.783 29.5884 208.783C25.6403 208.783 22.4399 213.494 22.4399 219.307V219.344C22.4441 221.076 20.5803 222.163 19.1013 221.26C15.3567 218.975 12.8572 214.85 12.8572 210.14C12.8572 207.142 13.8713 204.38 15.5755 202.18ZM62.7785 126.708V134.752H86.6788V126.708H62.7785Z" fill="#6CA1FF"/>
<path opacity="0.394764" fill-rule="evenodd" clip-rule="evenodd" d="M38.8793 209.664C38.8964 210.145 38.8873 210.62 38.8537 211.088C38.7012 213.211 35.9488 213.902 34.8052 212.108C33.5011 210.062 31.6457 208.783 29.5883 208.783C25.6401 208.783 22.4397 213.494 22.4397 219.306V219.344C22.4439 221.076 20.5802 222.163 19.1012 221.26C15.3566 218.975 12.8571 214.85 12.8571 210.14C12.8571 202.82 18.9015 196.911 26.2749 197.133C33.0681 197.337 38.6379 202.872 38.8793 209.664ZM102.76 89.7833C102.76 98.7014 96.2686 106.102 87.753 107.522C87.6302 107.501 87.5113 107.48 87.3893 107.455C79.0517 105.895 72.7425 98.5755 72.7425 89.7833C72.7425 80.991 79.0517 73.6711 87.3893 72.1113C87.5113 72.0868 87.6302 72.0658 87.753 72.0448C96.2686 73.4648 102.76 80.8651 102.76 89.7833ZM74.2777 89.8072C74.2777 95.561 78.9417 100.225 84.6955 100.225C90.4493 100.225 95.1134 95.561 95.1134 89.8072C95.1134 84.0534 90.4493 79.389 84.6955 79.389C78.9417 79.389 74.2777 84.0534 74.2777 89.8072ZM14.8615 74.437C14.8615 66.7418 21.0997 60.5037 28.7949 60.5037C36.49 60.5037 42.7282 66.7418 42.7282 74.437C42.7282 82.1322 36.49 88.3703 28.7949 88.3703C21.0997 88.3703 14.8615 82.1322 14.8615 74.437ZM18.2239 71.8543C18.2239 75.5874 21.2501 78.6136 24.9831 78.6136C28.7162 78.6136 31.7424 75.5874 31.7424 71.8543C31.7424 68.1213 28.7162 65.095 24.9831 65.095C21.2501 65.095 18.2239 68.1213 18.2239 71.8543ZM113.836 62.9095C114.132 62.803 114.433 62.7057 114.739 62.6181C122.138 60.5022 129.851 64.785 131.966 72.1836C134.082 79.5825 129.799 87.2952 122.401 89.4107C122.001 89.525 121.6 89.6207 121.199 89.6982V75.155C121.199 69.8718 118.208 65.2534 113.836 62.9095ZM135.708 201.714C137.604 204.076 138.689 207.106 138.561 210.37C138.375 215.076 135.715 219.099 131.883 221.235C130.37 222.079 128.551 220.919 128.623 219.189C128.623 219.176 128.624 219.164 128.624 219.152C128.853 213.344 125.841 208.511 121.896 208.355C119.84 208.274 117.936 209.478 116.552 211.471C115.339 213.22 112.615 212.42 112.547 210.293C112.532 209.824 112.541 209.349 112.577 208.869C112.816 205.693 114.213 202.838 116.33 200.708C111.645 197.405 108.562 191.96 108.542 185.825L108.415 148.087C108.381 138.036 116.578 129.785 126.629 129.751C136.68 129.717 144.932 137.913 144.965 147.964L145.092 185.702C145.115 192.553 141.314 198.568 135.708 201.714H135.708ZM63.198 104.211C63.198 102.235 64.8001 100.633 66.7761 100.633C68.7524 100.633 70.3542 102.235 70.3542 104.211C70.3542 106.187 68.7524 107.79 66.7761 107.79C64.8001 107.79 63.198 106.187 63.198 104.211ZM52.8562 104.211C52.8562 102.235 54.4583 100.633 56.4339 100.633C58.4103 100.633 60.0124 102.235 60.0124 104.211C60.0124 106.187 58.4103 107.79 56.4339 107.79C54.4583 107.79 52.8562 106.187 52.8562 104.211ZM5.71109 151.654C5.55825 149.683 7.03168 147.963 9.00207 147.81C10.9725 147.657 12.6935 149.131 12.846 151.101C12.9988 153.071 11.525 154.792 9.555 154.945C7.5846 155.097 5.86392 153.624 5.71109 151.654ZM6.47654 161.524C6.32371 159.554 7.79713 157.833 9.76717 157.68C11.7376 157.528 13.4586 159.001 13.6111 160.971C13.7639 162.942 12.2905 164.662 10.3201 164.815C8.34971 164.968 6.62938 163.494 6.47654 161.524ZM7.25922 171.634C7.10638 169.663 8.57981 167.942 10.5502 167.79C12.5206 167.637 14.2413 169.111 14.3938 171.081C14.5466 173.051 13.0732 174.772 11.1031 174.925C9.13273 175.077 7.41205 173.604 7.25922 171.634ZM62.6004 134.647V126.603H86.732V134.647H62.6004Z" fill="black"/>
<path fill-rule="evenodd" clip-rule="evenodd" d="M87.6689 107.545C96.1846 106.125 102.676 98.7247 102.676 89.8065C102.676 80.8883 96.1846 73.488 87.6689 72.0681C88.6342 71.9072 89.6271 71.8232 90.6382 71.8232C100.57 71.8232 108.621 79.8741 108.621 89.8065C108.621 99.7389 100.57 107.79 90.6382 107.79C89.6271 107.79 88.6342 107.706 87.6689 107.545Z" fill="#19141E"/>
<path d="M64.9531 17.2848C64.9531 17.2848 71.0602 21.3238 71.732 28.3119" stroke="#19141E" stroke-width="1.74866" stroke-linecap="round"/>
<path fill-rule="evenodd" clip-rule="evenodd" d="M64.3762 20.3114C66.4117 20.3114 68.0617 18.661 68.0617 16.6256C68.0617 14.5902 66.4117 12.9401 64.3762 12.9401C62.3408 12.9401 60.6904 14.5902 60.6904 16.6256C60.6904 18.661 62.3408 20.3114 64.3762 20.3114ZM46.8192 46.6717H65.3122V61.3172H75.9297V46.6717H93.4511C97.4664 46.6717 100.752 43.3863 100.752 39.371V34.4492C100.752 30.4339 97.4664 27.1486 93.4511 27.1486H46.8192C42.8039 27.1486 39.5186 30.4339 39.5186 34.4492V39.371C39.5186 43.3863 42.8039 46.6717 46.8192 46.6717Z" fill="#6CA1FF"/>
<path opacity="0.399042" fill-rule="evenodd" clip-rule="evenodd" d="M65.3125 61.3172H75.93V46.6284H65.3125V61.3172Z" fill="black"/>
<path opacity="0.400367" fill-rule="evenodd" clip-rule="evenodd" d="M65.3125 56.5663L75.93 53.0689V46.5695H65.3125V56.5663Z" fill="black"/>
<path fill-rule="evenodd" clip-rule="evenodd" d="M46.8192 46.6717C42.8039 46.6717 39.5186 43.3863 39.5186 39.371V34.4492C39.5186 30.4339 42.8039 27.1486 46.8192 27.1486C50.8345 27.1486 54.1199 30.4339 54.1199 34.4492V39.371C54.1199 43.3863 50.8345 46.6717 46.8192 46.6717Z" fill="#19141E"/>
<path fill-rule="evenodd" clip-rule="evenodd" d="M58.2695 36.9103C58.2695 40.0015 60.7757 42.5077 63.867 42.5077C66.9586 42.5077 69.4648 40.0015 69.4648 36.9103C69.4648 33.8186 66.9586 31.3124 63.867 31.3124C60.7757 31.3124 58.2695 33.8186 58.2695 36.9103Z" fill="white"/>
<path fill-rule="evenodd" clip-rule="evenodd" d="M62.0205 36.1237C62.0205 37.544 63.1718 38.6953 64.5921 38.6953C66.0124 38.6953 67.1637 37.544 67.1637 36.1237C67.1637 34.7034 66.0124 33.5521 64.5921 33.5521C63.1718 33.5521 62.0205 34.7034 62.0205 36.1237Z" fill="#19141E"/>
<path fill-rule="evenodd" clip-rule="evenodd" d="M85.5664 36.9103C85.5664 40.0015 88.0726 42.5077 91.1642 42.5077C94.2559 42.5077 96.762 40.0015 96.762 36.9103C96.762 33.8186 94.2559 31.3124 91.1642 31.3124C88.0726 31.3124 85.5664 33.8186 85.5664 36.9103Z" fill="white"/>
<path fill-rule="evenodd" clip-rule="evenodd" d="M89.3174 36.1237C89.3174 37.544 90.4687 38.6953 91.889 38.6953C93.3092 38.6953 94.4605 37.544 94.4605 36.1237C94.4605 34.7034 93.3092 33.5521 91.889 33.5521C90.4687 33.5521 89.3174 34.7034 89.3174 36.1237Z" fill="#19141E"/>
<path fill-rule="evenodd" clip-rule="evenodd" d="M76.2363 33.0735L81.2431 36.8726L76.2363 40.747" fill="#19141E"/>
</svg>
