<svg width="96" height="96" viewBox="0 0 96 96" fill="none" xmlns="http://www.w3.org/2000/svg">
<path d="M0 48C-7.36578e-07 56.4255 2.21775 64.7025 6.43036 71.9993C10.643 79.296 16.702 85.3554 23.9986 89.5684C31.2951 93.7814 39.572 95.9996 47.9975 96C56.423 96.0004 64.7001 93.7831 71.9971 89.5709C79.2941 85.3587 85.3538 79.2999 89.5671 72.0036C93.7805 64.7073 95.9991 56.4305 96 48.005C96.0009 39.5795 93.784 31.3022 89.5721 24.005C85.3603 16.7079 79.3019 10.6479 72.0058 6.43411L48 48L0 48Z" fill="#FDE8D0"/>
<g clip-path="url(#clip0)">
<path d="M68 29H17L25 23H61L68 29Z" fill="#FAEFDE"/>
<path d="M68 29H18C17.448 29 17 29.448 17 30V70C17 70.552 17.448 71 18 71H68C68.552 71 69 70.552 69 70V30C69 29.448 68.552 29 68 29Z" fill="#EFD8BE"/>
<path d="M69 71H17V70C17 67.791 18.791 66 21 66H65C67.209 66 69 67.791 69 70V71Z" fill="#CDA1A7"/>
<path d="M47 47H68L64 43L68 39L79 50L68 61L64 57L68 53H47V47Z" fill="#C2CDE7"/>
<path d="M48 39H38C36.895 39 36 38.105 36 37C36 35.895 36.895 35 38 35H48C49.105 35 50 35.895 50 37C50 38.105 49.105 39 48 39Z" fill="#CDA1A7"/>
<path d="M26 64.057C25.448 64.057 25 64.505 25 65.057V67.057C25 67.609 25.448 68.057 26 68.057C26.552 68.057 27 67.609 27 67.057V65.057C27 64.505 26.552 64.057 26 64.057ZM21 64.057C20.448 64.057 20 64.505 20 65.057V67.057C20 67.609 20.448 68.057 21 68.057C21.552 68.057 22 67.609 22 67.057V65.057C22 64.505 21.552 64.057 21 64.057ZM31 64.057C30.448 64.057 30 64.505 30 65.057V67.057C30 67.609 30.448 68.057 31 68.057C31.552 68.057 32 67.609 32 67.057V65.057C32 64.505 31.552 64.057 31 64.057ZM36 64.057C35.448 64.057 35 64.505 35 65.057V67.057C35 67.609 35.448 68.057 36 68.057C36.552 68.057 37 67.609 37 67.057V65.057C37 64.505 36.552 64.057 36 64.057ZM41 64.057C40.448 64.057 40 64.505 40 65.057V67.057C40 67.609 40.448 68.057 41 68.057C41.552 68.057 42 67.609 42 67.057V65.057C42 64.505 41.552 64.057 41 64.057ZM46 64.057C45.448 64.057 45 64.505 45 65.057V67.057C45 67.609 45.448 68.057 46 68.057C46.552 68.057 47 67.609 47 67.057V65.057C47 64.505 46.552 64.057 46 64.057ZM51 64.057C50.448 64.057 50 64.505 50 65.057V67.057C50 67.609 50.448 68.057 51 68.057C51.552 68.057 52 67.609 52 67.057V65.057C52 64.505 51.552 64.057 51 64.057ZM56 64.057C55.448 64.057 55 64.505 55 65.057V67.057C55 67.609 55.448 68.057 56 68.057C56.552 68.057 57 67.609 57 67.057V65.057C57 64.505 56.552 64.057 56 64.057ZM61 64.057C60.448 64.057 60 64.505 60 65.057V67.057C60 67.609 60.448 68.057 61 68.057C61.552 68.057 62 67.609 62 67.057V65.057C62 64.505 61.552 64.057 61 64.057ZM66 64.057C65.448 64.057 65 64.505 65 65.057V67.057C65 67.609 65.448 68.057 66 68.057C66.552 68.057 67 67.609 67 67.057V65.057C67 64.505 66.552 64.057 66 64.057ZM59 30.057H63C63.552 30.057 64 29.609 64 29.057C64 28.505 63.552 28.057 63 28.057H59C58.448 28.057 58 28.505 58 29.057C58 29.609 58.448 30.057 59 30.057Z" fill="#8D6C9F"/>
<path d="M79.71 49.29L70 39.58V31C70 29.43 69.25 27.94 68 27L62.67 23C61.81 22.35 60.74 22 59.67 22H26.33C25.26 22 24.19 22.35 23.33 23L18 27C16.75 27.94 16 29.43 16 31V69C16 70.65 17.35 72 19 72H67C68.65 72 70 70.65 70 69V60.42L79.71 50.71C80.1 50.32 80.1 49.68 79.71 49.29ZM24.53 24.6C25.05 24.21 25.69 24 26.33 24H42V28.057H19.923L24.53 24.6ZM68 69C68 69.55 67.55 70 67 70H19C18.45 70 18 69.55 18 69V31C18 30.675 18.071 30.361 18.173 30.057H55C55.552 30.057 56 29.609 56 29.057C56 28.505 55.552 28.057 55 28.057H44V24H59.67C60.31 24 60.95 24.21 61.47 24.6L66.8 28.6C67.55 29.16 68 30.06 68 31V38C67.74 38 67.48 38.1 67.29 38.29L63.29 42.29C62.9 42.68 62.9 43.32 63.29 43.71L65.59 46H47C46.45 46 46 46.45 46 47V53C46 53.55 46.45 54 47 54H65.59L63.29 56.29C62.9 56.68 62.9 57.32 63.29 57.71L67.29 61.71C67.49 61.9 67.74 62 68 62V69ZM70 57.59L68 59.59L65.41 57L68 54.42L68.71 53.71C68.99 53.42 69.08 52.99 68.92 52.62C68.77 52.24 68.4 52 68 52H48V48H68C68.4 48 68.77 47.76 68.92 47.38C69.08 47.01 68.99 46.58 68.71 46.29L68 45.58L65.41 43L68 40.41L70 42.41L77.59 50L70 57.59Z" fill="#8D6C9F"/>
<path d="M51 37C51 35.346 49.654 34 48 34H38C36.346 34 35 35.346 35 37C35 38.654 36.346 40 38 40H48C49.654 40 51 38.654 51 37ZM37 37C37 36.449 37.449 36 38 36H48C48.551 36 49 36.449 49 37C49 37.551 48.551 38 48 38H38C37.449 38 37 37.551 37 37Z" fill="#8D6C9F"/>
</g>
<defs>
<clipPath id="clip0">
<rect width="64" height="64" fill="white" transform="translate(16 16)"/>
</clipPath>
</defs>
</svg>
