<svg width="107" height="124" viewBox="0 0 107 124" fill="none" xmlns="http://www.w3.org/2000/svg">
<path d="M5 48C5 56.4255 7.21775 64.7025 11.4304 71.9993C15.643 79.296 21.702 85.3554 28.9986 89.5684C36.2951 93.7814 44.572 95.9996 52.9975 96C61.423 96.0004 69.7001 93.7831 76.9971 89.5709C84.2941 85.3587 90.3538 79.2999 94.5671 72.0036C98.7805 64.7073 100.999 56.4305 101 48.005C101.001 39.5795 98.784 31.3022 94.5721 24.005C90.3603 16.7079 84.3019 10.6479 77.0058 6.43411L53 48L5 48Z" fill="#FDE8D0"/>
<g clip-path="url(#clip0)">
<path d="M73 29H22L30 23H66L73 29Z" fill="#FAEFDE"/>
<path d="M73 29H23C22.448 29 22 29.448 22 30V70C22 70.552 22.448 71 23 71H73C73.552 71 74 70.552 74 70V30C74 29.448 73.552 29 73 29Z" fill="#EFD8BE"/>
<path d="M74 71H22V70C22 67.791 23.791 66 26 66H70C72.209 66 74 67.791 74 70V71Z" fill="#CDA1A7"/>
<path d="M52 47H73L69 43L73 39L84 50L73 61L69 57L73 53H52V47Z" fill="#C2CDE7"/>
<path d="M53 39H43C41.895 39 41 38.105 41 37C41 35.895 41.895 35 43 35H53C54.105 35 55 35.895 55 37C55 38.105 54.105 39 53 39Z" fill="#CDA1A7"/>
<path d="M31 64.057C30.448 64.057 30 64.505 30 65.057V67.057C30 67.609 30.448 68.057 31 68.057C31.552 68.057 32 67.609 32 67.057V65.057C32 64.505 31.552 64.057 31 64.057ZM26 64.057C25.448 64.057 25 64.505 25 65.057V67.057C25 67.609 25.448 68.057 26 68.057C26.552 68.057 27 67.609 27 67.057V65.057C27 64.505 26.552 64.057 26 64.057ZM36 64.057C35.448 64.057 35 64.505 35 65.057V67.057C35 67.609 35.448 68.057 36 68.057C36.552 68.057 37 67.609 37 67.057V65.057C37 64.505 36.552 64.057 36 64.057ZM41 64.057C40.448 64.057 40 64.505 40 65.057V67.057C40 67.609 40.448 68.057 41 68.057C41.552 68.057 42 67.609 42 67.057V65.057C42 64.505 41.552 64.057 41 64.057ZM46 64.057C45.448 64.057 45 64.505 45 65.057V67.057C45 67.609 45.448 68.057 46 68.057C46.552 68.057 47 67.609 47 67.057V65.057C47 64.505 46.552 64.057 46 64.057ZM51 64.057C50.448 64.057 50 64.505 50 65.057V67.057C50 67.609 50.448 68.057 51 68.057C51.552 68.057 52 67.609 52 67.057V65.057C52 64.505 51.552 64.057 51 64.057ZM56 64.057C55.448 64.057 55 64.505 55 65.057V67.057C55 67.609 55.448 68.057 56 68.057C56.552 68.057 57 67.609 57 67.057V65.057C57 64.505 56.552 64.057 56 64.057ZM61 64.057C60.448 64.057 60 64.505 60 65.057V67.057C60 67.609 60.448 68.057 61 68.057C61.552 68.057 62 67.609 62 67.057V65.057C62 64.505 61.552 64.057 61 64.057ZM66 64.057C65.448 64.057 65 64.505 65 65.057V67.057C65 67.609 65.448 68.057 66 68.057C66.552 68.057 67 67.609 67 67.057V65.057C67 64.505 66.552 64.057 66 64.057ZM71 64.057C70.448 64.057 70 64.505 70 65.057V67.057C70 67.609 70.448 68.057 71 68.057C71.552 68.057 72 67.609 72 67.057V65.057C72 64.505 71.552 64.057 71 64.057ZM64 30.057H68C68.552 30.057 69 29.609 69 29.057C69 28.505 68.552 28.057 68 28.057H64C63.448 28.057 63 28.505 63 29.057C63 29.609 63.448 30.057 64 30.057Z" fill="#8D6C9F"/>
<path d="M84.71 49.29L75 39.58V31C75 29.43 74.25 27.94 73 27L67.67 23C66.81 22.35 65.74 22 64.67 22H31.33C30.26 22 29.19 22.35 28.33 23L23 27C21.75 27.94 21 29.43 21 31V69C21 70.65 22.35 72 24 72H72C73.65 72 75 70.65 75 69V60.42L84.71 50.71C85.1 50.32 85.1 49.68 84.71 49.29ZM29.53 24.6C30.05 24.21 30.69 24 31.33 24H47V28.057H24.923L29.53 24.6ZM73 69C73 69.55 72.55 70 72 70H24C23.45 70 23 69.55 23 69V31C23 30.675 23.071 30.361 23.173 30.057H60C60.552 30.057 61 29.609 61 29.057C61 28.505 60.552 28.057 60 28.057H49V24H64.67C65.31 24 65.95 24.21 66.47 24.6L71.8 28.6C72.55 29.16 73 30.06 73 31V38C72.74 38 72.48 38.1 72.29 38.29L68.29 42.29C67.9 42.68 67.9 43.32 68.29 43.71L70.59 46H52C51.45 46 51 46.45 51 47V53C51 53.55 51.45 54 52 54H70.59L68.29 56.29C67.9 56.68 67.9 57.32 68.29 57.71L72.29 61.71C72.49 61.9 72.74 62 73 62V69ZM75 57.59L73 59.59L70.41 57L73 54.42L73.71 53.71C73.99 53.42 74.08 52.99 73.92 52.62C73.77 52.24 73.4 52 73 52H53V48H73C73.4 48 73.77 47.76 73.92 47.38C74.08 47.01 73.99 46.58 73.71 46.29L73 45.58L70.41 43L73 40.41L75 42.41L82.59 50L75 57.59Z" fill="#8D6C9F"/>
<path d="M56 37C56 35.346 54.654 34 53 34H43C41.346 34 40 35.346 40 37C40 38.654 41.346 40 43 40H53C54.654 40 56 38.654 56 37ZM42 37C42 36.449 42.449 36 43 36H53C53.551 36 54 36.449 54 37C54 37.551 53.551 38 53 38H43C42.449 38 42 37.551 42 37Z" fill="#8D6C9F"/>
</g>
<defs>
<clipPath id="clip0">
<rect x="21" y="16" width="64" height="64" fill="white"/>
</clipPath>
</defs>
</svg>
