<svg width="96" height="96" viewBox="0 0 96 96" fill="none" xmlns="http://www.w3.org/2000/svg">
<path d="M93.9555 34.1403C96.1097 41.2829 96.5692 48.8294 95.2977 56.1806C94.0263 63.5319 91.0587 70.4856 86.6307 76.4898C82.2027 82.494 76.436 87.3834 69.7885 90.7699C63.141 94.1563 55.7956 95.9467 48.3354 95.9988C40.8752 96.051 33.5055 94.3634 26.8113 91.0702C20.1171 87.7769 14.2827 82.9686 9.77118 77.0268C5.25968 71.0851 2.19527 64.1736 0.821187 56.8408C-0.552896 49.508 -0.198821 41.9559 1.85531 34.7838L48 48L93.9555 34.1403Z" fill="#FDE8D0"/>
<path d="M72 29H21L29 23H65L72 29Z" fill="#FAEFDE"/>
<path d="M72 29H22C21.448 29 21 29.448 21 30V70C21 70.552 21.448 71 22 71H72C72.552 71 73 70.552 73 70V30C73 29.448 72.552 29 72 29Z" fill="#EFD8BE"/>
<path d="M73 71H21V70C21 67.791 22.791 66 25 66H69C71.209 66 73 67.791 73 70V71ZM52 39H42C40.895 39 40 38.105 40 37C40 35.895 40.895 35 42 35H52C53.105 35 54 35.895 54 37C54 38.105 53.105 39 52 39Z" fill="#CDA1A7"/>
<path d="M51 57H55V61H51V57ZM39 57H43V61H39V57ZM39 45H43V49H39V45Z" fill="#C5E4FA"/>
<path d="M32 64.057C31.448 64.057 31 64.505 31 65.057V67.057C31 67.609 31.448 68.057 32 68.057C32.552 68.057 33 67.609 33 67.057V65.057C33 64.505 32.552 64.057 32 64.057ZM27 64.057C26.448 64.057 26 64.505 26 65.057V67.057C26 67.609 26.448 68.057 27 68.057C27.552 68.057 28 67.609 28 67.057V65.057C28 64.505 27.552 64.057 27 64.057ZM37 64.057C36.448 64.057 36 64.505 36 65.057V67.057C36 67.609 36.448 68.057 37 68.057C37.552 68.057 38 67.609 38 67.057V65.057C38 64.505 37.552 64.057 37 64.057ZM42 64.057C41.448 64.057 41 64.505 41 65.057V67.057C41 67.609 41.448 68.057 42 68.057C42.552 68.057 43 67.609 43 67.057V65.057C43 64.505 42.552 64.057 42 64.057ZM47 68.057C47.552 68.057 48 67.609 48 67.057V65.057C48 64.505 47.552 64.057 47 64.057C46.448 64.057 46 64.505 46 65.057V67.057C46 67.609 46.448 68.057 47 68.057ZM56 67.057C56 67.609 56.448 68.057 57 68.057C57.552 68.057 58 67.609 58 67.057V65.057C58 64.505 57.552 64.057 57 64.057C56.448 64.057 56 64.505 56 65.057V67.057ZM62 68.057C62.552 68.057 63 67.609 63 67.057V65.057C63 64.505 62.552 64.057 62 64.057C61.448 64.057 61 64.505 61 65.057V67.057C61 67.609 61.448 68.057 62 68.057ZM67 68.057C67.552 68.057 68 67.609 68 67.057V65.057C68 64.505 67.552 64.057 67 64.057C66.448 64.057 66 64.505 66 65.057V67.057C66 67.609 66.448 68.057 67 68.057ZM52 64.057C51.448 64.057 51 64.505 51 65.057V67.057C51 67.609 51.448 68.057 52 68.057C52.552 68.057 53 67.609 53 67.057V65.057C53 64.505 52.552 64.057 52 64.057ZM63 30.057H67C67.552 30.057 68 29.609 68 29.057C68 28.505 67.552 28.057 67 28.057H63C62.448 28.057 62 28.505 62 29.057C62 29.609 62.448 30.057 63 30.057ZM42 40H52C53.654 40 55 38.654 55 37C55 35.346 53.654 34 52 34H42C40.346 34 39 35.346 39 37C39 38.654 40.346 40 42 40ZM42 36H52C52.551 36 53 36.449 53 37C53 37.551 52.551 38 52 38H42C41.449 38 41 37.551 41 37C41 36.449 41.449 36 42 36ZM23 74H18V69C18 68.448 17.552 68 17 68C16.448 68 16 68.448 16 69V75C16 75.552 16.448 76 17 76H23C23.552 76 24 75.552 24 75C24 74.448 23.552 74 23 74ZM77 68C76.448 68 76 68.448 76 69V74H71C70.448 74 70 74.448 70 75C70 75.552 70.448 76 71 76H77C77.552 76 78 75.552 78 75V69C78 68.448 77.552 68 77 68Z" fill="#8D6C9F"/>
<path d="M17 46H20V69C20 70.654 21.346 72 23 72H71C72.654 72 74 70.654 74 69V46H77C77.552 46 78 45.552 78 45C78 44.448 77.552 44 77 44H74V31C74 29.435 73.252 27.939 72 27L66.667 23C65.807 22.355 64.742 22 63.667 22H30.333C29.258 22 28.193 22.355 27.333 23L22 27C20.748 27.939 20 29.435 20 31V44H17C16.448 44 16 44.448 16 45C16 45.552 16.448 46 17 46ZM72 69C72 69.551 71.551 70 71 70H23C22.449 70 22 69.551 22 69V46H38V49C38 49.552 38.448 50 39 50H43C43.552 50 44 49.552 44 49V46H72V69ZM40 46H42V48H40V46ZM28.533 24.6C29.049 24.213 29.688 24 30.333 24H46V28.057H23.923L28.533 24.6ZM22 31C22 30.674 22.071 30.36 22.173 30.057H59C59.552 30.057 60 29.609 60 29.057C60 28.505 59.552 28.057 59 28.057H48V24H63.667C64.312 24 64.951 24.213 65.467 24.6L70.8 28.6C71.551 29.163 72 30.061 72 31V44H43H39H22V31Z" fill="#8D6C9F"/>
<path d="M56 57C56 56.448 55.552 56 55 56H51C50.448 56 50 56.448 50 57V61C50 61.552 50.448 62 51 62H55C55.552 62 56 61.552 56 61V57ZM54 60H52V58H54V60ZM43 56H39C38.448 56 38 56.448 38 57V61C38 61.552 38.448 62 39 62H43C43.552 62 44 61.552 44 61V57C44 56.448 43.552 56 43 56ZM42 60H40V58H42V60Z" fill="#8D6C9F"/>
<path d="M47 60C47.552 60 48 59.552 48 59V54H51C51.552 54 52 53.552 52 53V50H54V51C54 51.552 54.448 52 55 52C55.552 52 56 51.552 56 51V49C56 48.448 55.552 48 55 48H51C50.448 48 50 48.448 50 49V52H47C46.448 52 46 52.448 46 53V59C46 59.552 46.448 60 47 60ZM43 52H39C38.448 52 38 52.448 38 53C38 53.552 38.448 54 39 54H43C43.552 54 44 53.552 44 53C44 52.448 43.552 52 43 52ZM47 50C47.552 50 48 49.552 48 49V48C48 47.448 47.552 47 47 47C46.448 47 46 47.448 46 48V49C46 49.552 46.448 50 47 50Z" fill="#8D6C9F"/>
</svg>
