<svg width="54" height="54" viewBox="0 0 54 54" fill="none" xmlns="http://www.w3.org/2000/svg">
<path d="M6.11719 0C5.27219 0 4.46448 0.356469 3.89648 0.980469C3.32948 1.60347 3.05086 2.44225 3.13086 3.28125C3.60486 8.30825 5.615 20 14 20C14.065 20 14.1313 19.9945 14.1953 19.9805L29.6016 16.9004C29.686 16.9378 29.7692 16.9772 29.8652 16.9902C32.7932 17.3872 35 19.971 35 23C35 24.156 34.5091 25.3815 33.5391 26.6445C32.9521 27.4095 32.7839 28.4198 33.0879 29.3438C33.3989 30.2917 34.1552 31.0247 35.1152 31.3027C35.4102 31.3887 35.7088 31.4922 36.0078 31.6172C38.7438 32.7662 40.6879 35.352 40.9609 38.207C41.0659 39.296 40.6124 40.8353 39.6484 42.6543C39.0464 43.7913 39.0821 45.1265 39.7461 46.2305C40.4121 47.3385 41.583 48 42.875 48H44.959C47.79 48 50.4379 46.6083 52.0449 44.2773C53.6499 41.9453 54.0049 38.9732 53.0059 36.3652L45.3145 13.7578L47.5898 13.3027C48.9868 13.0237 50 11.7844 50 10.3594V3C50 1.346 48.654 0 47 0H6.11719ZM6.11719 2H47C47.552 2 48 2.449 48 3V10.3594C48 10.8344 47.6613 11.2478 47.1953 11.3418L13.9043 18C7.2413 17.901 5.54114 7.55375 5.11914 3.09375C5.09314 2.80875 5.18595 2.53617 5.37695 2.32617C5.56795 2.11517 5.83119 2 6.11719 2ZM10 4C9.447 4 9 4.448 9 5V7C9 7.552 9.447 8 10 8C10.553 8 11 7.552 11 7V5C11 4.448 10.553 4 10 4ZM15 4C14.447 4 14 4.448 14 5V7C14 7.552 14.447 8 15 8C15.553 8 16 7.552 16 7V5C16 4.448 15.553 4 15 4ZM20 4C19.447 4 19 4.448 19 5V7C19 7.552 19.447 8 20 8C20.553 8 21 7.552 21 7V5C21 4.448 20.553 4 20 4ZM25 4C24.447 4 24 4.448 24 5V7C24 7.552 24.447 8 25 8C25.553 8 26 7.552 26 7V5C26 4.448 25.553 4 25 4ZM30 4C29.447 4 29 4.448 29 5V7C29 7.552 29.447 8 30 8C30.553 8 31 7.552 31 7V5C31 4.448 30.553 4 30 4ZM35 4C34.447 4 34 4.448 34 5V7C34 7.552 34.447 8 35 8C35.553 8 36 7.552 36 7V5C36 4.448 35.553 4 35 4ZM40 4C39.447 4 39 4.448 39 5V7C39 7.552 39.447 8 40 8C40.553 8 41 7.552 41 7V5C41 4.448 40.553 4 40 4ZM45 4C44.447 4 44 4.448 44 5V7C44 7.552 44.447 8 45 8C45.553 8 46 7.552 46 7V5C46 4.448 45.553 4 45 4ZM43.3379 14.1523L51.123 37.0449C51.91 39.1039 51.6455 41.3266 50.3965 43.1426C49.1465 44.9576 47.164 46 44.959 46H42.875C42.291 46 41.7619 45.7002 41.4609 45.1992C41.1569 44.6952 41.141 44.1108 41.416 43.5918C42.58 41.3938 43.0972 39.5176 42.9512 38.0176C42.6082 34.4406 40.1872 31.2034 36.7832 29.7734C36.4172 29.6194 36.0448 29.4879 35.6738 29.3809C35.3498 29.2869 35.0923 29.0397 34.9883 28.7188C34.9303 28.5427 34.871 28.1963 35.127 27.8613C36.37 26.2423 37 24.606 37 23C37 20.151 35.5176 17.6028 33.2656 16.166L43.3379 14.1523ZM1 30C0.447 30 0 30.448 0 31V47C0 47.552 0.447 48 1 48C1.553 48 2 47.552 2 47V31C2 30.448 1.553 30 1 30ZM6 30C5.447 30 5 30.448 5 31V47C5 47.552 5.447 48 6 48C6.553 48 7 47.552 7 47V31C7 30.448 6.553 30 6 30ZM11 30C10.447 30 10 30.448 10 31V47C10 47.552 10.447 48 11 48C11.553 48 12 47.552 12 47V31C12 30.448 11.553 30 11 30ZM16 30C15.447 30 15 30.448 15 31V47C15 47.552 15.447 48 16 48H22C22.553 48 23 47.552 23 47V31C23 30.448 22.553 30 22 30H16ZM26 30C25.447 30 25 30.448 25 31V47C25 47.552 25.447 48 26 48C26.553 48 27 47.552 27 47V31C27 30.448 26.553 30 26 30ZM1 50C0.447 50 0 50.448 0 51V53C0 53.552 0.447 54 1 54C1.553 54 2 53.552 2 53V51C2 50.448 1.553 50 1 50ZM6 50C5.447 50 5 50.448 5 51V53C5 53.552 5.447 54 6 54C6.553 54 7 53.552 7 53V51C7 50.448 6.553 50 6 50ZM11 50C10.447 50 10 50.448 10 51V53C10 53.552 10.447 54 11 54C11.553 54 12 53.552 12 53V51C12 50.448 11.553 50 11 50ZM16 50C15.447 50 15 50.448 15 51V53C15 53.552 15.447 54 16 54C16.553 54 17 53.552 17 53V51C17 50.448 16.553 50 16 50ZM21 50C20.447 50 20 50.448 20 51V53C20 53.552 20.447 54 21 54C21.553 54 22 53.552 22 53V51C22 50.448 21.553 50 21 50ZM26 50C25.447 50 25 50.448 25 51V53C25 53.552 25.447 54 26 54C26.553 54 27 53.552 27 53V51C27 50.448 26.553 50 26 50Z" fill="#E6E6FE"/>
</svg>
