<svg width="56" height="56" viewBox="0 0 56 56" fill="none" xmlns="http://www.w3.org/2000/svg">
<path d="M1 0C0.447 0 0 0.447 0 1V7C0 7.553 0.447 8 1 8C1.553 8 2 7.553 2 7V2H7C7.553 2 8 1.553 8 1C8 0.447 7.553 0 7 0H1ZM49 0C48.447 0 48 0.447 48 1C48 1.553 48.447 2 49 2H54V7C54 7.553 54.447 8 55 8C55.553 8 56 7.553 56 7V1C56 0.447 55.553 0 55 0H49ZM6 6C5.447 6 5 6.447 5 7V22H1C0.447 22 0 22.447 0 23V31C0 31.553 0.447 32 1 32H5V49C5 49.553 5.447 50 6 50C6.553 50 7 49.553 7 49V32H9V49C9 49.553 9.447 50 10 50H14C14.553 50 15 49.553 15 49V32H17V49C17 49.553 17.447 50 18 50C18.553 50 19 49.553 19 49V32H21V49C21 49.553 21.447 50 22 50C22.553 50 23 49.553 23 49V32H25V49C25 49.553 25.447 50 26 50H30C30.553 50 31 49.553 31 49V32H33V49C33 49.553 33.447 50 34 50C34.553 50 35 49.553 35 49V32H37V49C37 49.553 37.447 50 38 50C38.553 50 39 49.553 39 49V32H41V49C41 49.553 41.447 50 42 50C42.553 50 43 49.553 43 49V32H45V49C45 49.553 45.447 50 46 50H50C50.553 50 51 49.553 51 49V32H55C55.553 32 56 31.553 56 31V23C56 22.447 55.553 22 55 22H51V7C51 6.447 50.553 6 50 6H46C45.447 6 45 6.447 45 7V22H43V7C43 6.447 42.553 6 42 6C41.447 6 41 6.447 41 7V22H39V7C39 6.447 38.553 6 38 6C37.447 6 37 6.447 37 7V22H35V7C35 6.447 34.553 6 34 6C33.447 6 33 6.447 33 7V22H31V7C31 6.447 30.553 6 30 6H26C25.447 6 25 6.447 25 7V22H23V7C23 6.447 22.553 6 22 6C21.447 6 21 6.447 21 7V22H19V7C19 6.447 18.553 6 18 6C17.447 6 17 6.447 17 7V22H15V7C15 6.447 14.553 6 14 6H10C9.447 6 9 6.447 9 7V22H7V7C7 6.447 6.553 6 6 6ZM2 24H54V30H2V24ZM1 48C0.447 48 0 48.447 0 49V55C0 55.553 0.447 56 1 56H7C7.553 56 8 55.553 8 55C8 54.447 7.553 54 7 54H2V49C2 48.447 1.553 48 1 48ZM55 48C54.447 48 54 48.447 54 49V54H49C48.447 54 48 54.447 48 55C48 55.553 48.447 56 49 56H55C55.553 56 56 55.553 56 55V49C56 48.447 55.553 48 55 48Z" fill="#E6E6FE"/>
</svg>
